<?xml version="1.0" standalone="no"?>
 <!DOCTYPE svg PUBLIC "-//W3C//DTD SVG 1.1//EN" 
 "http://www.w3.org/Graphics/SVG/1.1/DTD/svg11.dtd"> 
<svg xmlns="http://www.w3.org/2000/svg" version="1.1" 
    width="29.7002cm" height="21.0007cm" viewBox="0 0 116930 82680 ">
<title>SVG Picture created as BeagleBone_serial_cape-F.SilkS.svg date 2017/02/21 17:37:44 </title>
  <desc>Picture generated by PCBNEW </desc>
<g style="fill:#000000; fill-opacity:1;stroke:#000000; stroke-opacity:1;
stroke-linecap:round; stroke-linejoin:round; "
 transform="translate(0 0) scale(1 1)">
</g>
<g style="fill:#000000; fill-opacity:0.0; 
stroke:#000000; stroke-width:-0.000393701; stroke-opacity:1; 
stroke-linecap:round; stroke-linejoin:round;">
</g>
<g style="fill:#000000; fill-opacity:0.0; 
stroke:#000000; stroke-width:39.3701; stroke-opacity:1; 
stroke-linecap:round; stroke-linejoin:round;">
</g>
<g style="fill:#000000; fill-opacity:0.0; 
stroke:#000000; stroke-width:59.0551; stroke-opacity:1; 
stroke-linecap:round; stroke-linejoin:round;">
<rect x="69685.9" y="65357.2" width="42519.7" height="12598.4" rx="0" />
</g>
<g style="fill:#000000; fill-opacity:0.0; 
stroke:#000000; stroke-width:39.3701; stroke-opacity:1; 
stroke-linecap:round; stroke-linejoin:round;">
</g>
<g style="fill:#000000; fill-opacity:0.0; 
stroke:#000000; stroke-width:59.0551; stroke-opacity:1; 
stroke-linecap:round; stroke-linejoin:round;">
<rect x="3937.01" y="3937.01" width="109056" height="74806" rx="0" />
</g>
<g style="fill:#000000; fill-opacity:0.0; 
stroke:#000000; stroke-width:39.3701; stroke-opacity:1; 
stroke-linecap:round; stroke-linejoin:round;">
</g>
<g style="fill:#000000; fill-opacity:0.0; 
stroke:#000000; stroke-width:59.0551; stroke-opacity:1; 
stroke-linecap:round; stroke-linejoin:round;">
<rect x="4724.41" y="4724.41" width="107481" height="73231.2" rx="0" />
</g>
<g style="fill:#000000; fill-opacity:0.0; 
stroke:#000000; stroke-width:39.3701; stroke-opacity:1; 
stroke-linecap:round; stroke-linejoin:round;">
</g>
<g style="fill:#000000; fill-opacity:0.0; 
stroke:#000000; stroke-width:59.0551; stroke-opacity:1; 
stroke-linecap:round; stroke-linejoin:round;">
<path d="M23622 4724
L23622 3937
" />
</g>
<g style="fill:#000000; fill-opacity:0.0; 
stroke:#000000; stroke-width:39.3701; stroke-opacity:1; 
stroke-linecap:round; stroke-linejoin:round;">
</g>
<g style="fill:#000000; fill-opacity:0.0; 
stroke:#000000; stroke-width:59.0551; stroke-opacity:1; 
stroke-linecap:round; stroke-linejoin:round;">
<path d="M43307 4724
L43307 3937
" />
</g>
<g style="fill:#000000; fill-opacity:0.0; 
stroke:#000000; stroke-width:39.3701; stroke-opacity:1; 
stroke-linecap:round; stroke-linejoin:round;">
</g>
<g style="fill:#000000; fill-opacity:0.0; 
stroke:#000000; stroke-width:59.0551; stroke-opacity:1; 
stroke-linecap:round; stroke-linejoin:round;">
<path d="M62992 4724
L62992 3937
" />
</g>
<g style="fill:#000000; fill-opacity:0.0; 
stroke:#000000; stroke-width:39.3701; stroke-opacity:1; 
stroke-linecap:round; stroke-linejoin:round;">
</g>
<g style="fill:#000000; fill-opacity:0.0; 
stroke:#000000; stroke-width:59.0551; stroke-opacity:1; 
stroke-linecap:round; stroke-linejoin:round;">
<path d="M82677 4724
L82677 3937
" />
</g>
<g style="fill:#000000; fill-opacity:0.0; 
stroke:#000000; stroke-width:39.3701; stroke-opacity:1; 
stroke-linecap:round; stroke-linejoin:round;">
</g>
<g style="fill:#000000; fill-opacity:0.0; 
stroke:#000000; stroke-width:59.0551; stroke-opacity:1; 
stroke-linecap:round; stroke-linejoin:round;">
<path d="M102362 4724
L102362 3937
" />
</g>
<g style="fill:#000000; fill-opacity:0.0; 
stroke:#000000; stroke-width:39.3701; stroke-opacity:1; 
stroke-linecap:round; stroke-linejoin:round;">
</g>
<g style="fill:#000000; fill-opacity:0.0; 
stroke:#000000; stroke-width:59.0551; stroke-opacity:1; 
stroke-linecap:round; stroke-linejoin:round;">
<path d="M14169 4562
L13877 4562
" />
<path d="M14023 4562
L14023 4050
L13974 4123
L13925 4172
L13877 4196
" />
</g>
<g style="fill:#000000; fill-opacity:0.0; 
stroke:#000000; stroke-width:39.3701; stroke-opacity:1; 
stroke-linecap:round; stroke-linejoin:round;">
</g>
<g style="fill:#000000; fill-opacity:0.0; 
stroke:#000000; stroke-width:59.0551; stroke-opacity:1; 
stroke-linecap:round; stroke-linejoin:round;">
<path d="M33562 4099
L33586 4074
L33635 4050
L33757 4050
L33805 4074
L33830 4099
L33854 4147
L33854 4196
L33830 4269
L33537 4562
L33854 4562
" />
</g>
<g style="fill:#000000; fill-opacity:0.0; 
stroke:#000000; stroke-width:39.3701; stroke-opacity:1; 
stroke-linecap:round; stroke-linejoin:round;">
</g>
<g style="fill:#000000; fill-opacity:0.0; 
stroke:#000000; stroke-width:59.0551; stroke-opacity:1; 
stroke-linecap:round; stroke-linejoin:round;">
<path d="M53222 4050
L53539 4050
L53368 4245
L53442 4245
L53490 4269
L53515 4294
L53539 4342
L53539 4464
L53515 4513
L53490 4537
L53442 4562
L53295 4562
L53247 4537
L53222 4513
" />
</g>
<g style="fill:#000000; fill-opacity:0.0; 
stroke:#000000; stroke-width:39.3701; stroke-opacity:1; 
stroke-linecap:round; stroke-linejoin:round;">
</g>
<g style="fill:#000000; fill-opacity:0.0; 
stroke:#000000; stroke-width:59.0551; stroke-opacity:1; 
stroke-linecap:round; stroke-linejoin:round;">
<path d="M73175 4221
L73175 4562
" />
<path d="M73053 4026
L72932 4391
L73248 4391
" />
</g>
<g style="fill:#000000; fill-opacity:0.0; 
stroke:#000000; stroke-width:39.3701; stroke-opacity:1; 
stroke-linecap:round; stroke-linejoin:round;">
</g>
<g style="fill:#000000; fill-opacity:0.0; 
stroke:#000000; stroke-width:59.0551; stroke-opacity:1; 
stroke-linecap:round; stroke-linejoin:round;">
<path d="M92885 4050
L92641 4050
L92617 4294
L92641 4269
L92690 4245
L92812 4245
L92860 4269
L92885 4294
L92909 4342
L92909 4464
L92885 4513
L92860 4537
L92812 4562
L92690 4562
L92641 4537
L92617 4513
" />
</g>
<g style="fill:#000000; fill-opacity:0.0; 
stroke:#000000; stroke-width:39.3701; stroke-opacity:1; 
stroke-linecap:round; stroke-linejoin:round;">
</g>
<g style="fill:#000000; fill-opacity:0.0; 
stroke:#000000; stroke-width:59.0551; stroke-opacity:1; 
stroke-linecap:round; stroke-linejoin:round;">
<path d="M112545 4050
L112448 4050
L112399 4074
L112375 4099
L112326 4172
L112302 4269
L112302 4464
L112326 4513
L112350 4537
L112399 4562
L112497 4562
L112545 4537
L112570 4513
L112594 4464
L112594 4342
L112570 4294
L112545 4269
L112497 4245
L112399 4245
L112350 4269
L112326 4294
L112302 4342
" />
</g>
<g style="fill:#000000; fill-opacity:0.0; 
stroke:#000000; stroke-width:39.3701; stroke-opacity:1; 
stroke-linecap:round; stroke-linejoin:round;">
</g>
<g style="fill:#000000; fill-opacity:0.0; 
stroke:#000000; stroke-width:59.0551; stroke-opacity:1; 
stroke-linecap:round; stroke-linejoin:round;">
<path d="M23622 77955
L23622 78742
" />
</g>
<g style="fill:#000000; fill-opacity:0.0; 
stroke:#000000; stroke-width:39.3701; stroke-opacity:1; 
stroke-linecap:round; stroke-linejoin:round;">
</g>
<g style="fill:#000000; fill-opacity:0.0; 
stroke:#000000; stroke-width:59.0551; stroke-opacity:1; 
stroke-linecap:round; stroke-linejoin:round;">
<path d="M43307 77955
L43307 78742
" />
</g>
<g style="fill:#000000; fill-opacity:0.0; 
stroke:#000000; stroke-width:39.3701; stroke-opacity:1; 
stroke-linecap:round; stroke-linejoin:round;">
</g>
<g style="fill:#000000; fill-opacity:0.0; 
stroke:#000000; stroke-width:59.0551; stroke-opacity:1; 
stroke-linecap:round; stroke-linejoin:round;">
<path d="M62992 77955
L62992 78742
" />
</g>
<g style="fill:#000000; fill-opacity:0.0; 
stroke:#000000; stroke-width:39.3701; stroke-opacity:1; 
stroke-linecap:round; stroke-linejoin:round;">
</g>
<g style="fill:#000000; fill-opacity:0.0; 
stroke:#000000; stroke-width:59.0551; stroke-opacity:1; 
stroke-linecap:round; stroke-linejoin:round;">
<path d="M82677 77955
L82677 78742
" />
</g>
<g style="fill:#000000; fill-opacity:0.0; 
stroke:#000000; stroke-width:39.3701; stroke-opacity:1; 
stroke-linecap:round; stroke-linejoin:round;">
</g>
<g style="fill:#000000; fill-opacity:0.0; 
stroke:#000000; stroke-width:59.0551; stroke-opacity:1; 
stroke-linecap:round; stroke-linejoin:round;">
<path d="M102362 77955
L102362 78742
" />
</g>
<g style="fill:#000000; fill-opacity:0.0; 
stroke:#000000; stroke-width:39.3701; stroke-opacity:1; 
stroke-linecap:round; stroke-linejoin:round;">
</g>
<g style="fill:#000000; fill-opacity:0.0; 
stroke:#000000; stroke-width:59.0551; stroke-opacity:1; 
stroke-linecap:round; stroke-linejoin:round;">
<path d="M14169 78580
L13877 78580
" />
<path d="M14023 78580
L14023 78069
L13974 78142
L13925 78190
L13877 78215
" />
</g>
<g style="fill:#000000; fill-opacity:0.0; 
stroke:#000000; stroke-width:39.3701; stroke-opacity:1; 
stroke-linecap:round; stroke-linejoin:round;">
</g>
<g style="fill:#000000; fill-opacity:0.0; 
stroke:#000000; stroke-width:59.0551; stroke-opacity:1; 
stroke-linecap:round; stroke-linejoin:round;">
<path d="M33562 78117
L33586 78093
L33635 78069
L33757 78069
L33805 78093
L33830 78117
L33854 78166
L33854 78215
L33830 78288
L33537 78580
L33854 78580
" />
</g>
<g style="fill:#000000; fill-opacity:0.0; 
stroke:#000000; stroke-width:39.3701; stroke-opacity:1; 
stroke-linecap:round; stroke-linejoin:round;">
</g>
<g style="fill:#000000; fill-opacity:0.0; 
stroke:#000000; stroke-width:59.0551; stroke-opacity:1; 
stroke-linecap:round; stroke-linejoin:round;">
<path d="M53222 78069
L53539 78069
L53368 78263
L53442 78263
L53490 78288
L53515 78312
L53539 78361
L53539 78483
L53515 78532
L53490 78556
L53442 78580
L53295 78580
L53247 78556
L53222 78532
" />
</g>
<g style="fill:#000000; fill-opacity:0.0; 
stroke:#000000; stroke-width:39.3701; stroke-opacity:1; 
stroke-linecap:round; stroke-linejoin:round;">
</g>
<g style="fill:#000000; fill-opacity:0.0; 
stroke:#000000; stroke-width:59.0551; stroke-opacity:1; 
stroke-linecap:round; stroke-linejoin:round;">
<path d="M73175 78239
L73175 78580
" />
<path d="M73053 78044
L72932 78410
L73248 78410
" />
</g>
<g style="fill:#000000; fill-opacity:0.0; 
stroke:#000000; stroke-width:39.3701; stroke-opacity:1; 
stroke-linecap:round; stroke-linejoin:round;">
</g>
<g style="fill:#000000; fill-opacity:0.0; 
stroke:#000000; stroke-width:59.0551; stroke-opacity:1; 
stroke-linecap:round; stroke-linejoin:round;">
<path d="M92885 78069
L92641 78069
L92617 78312
L92641 78288
L92690 78263
L92812 78263
L92860 78288
L92885 78312
L92909 78361
L92909 78483
L92885 78532
L92860 78556
L92812 78580
L92690 78580
L92641 78556
L92617 78532
" />
</g>
<g style="fill:#000000; fill-opacity:0.0; 
stroke:#000000; stroke-width:39.3701; stroke-opacity:1; 
stroke-linecap:round; stroke-linejoin:round;">
</g>
<g style="fill:#000000; fill-opacity:0.0; 
stroke:#000000; stroke-width:59.0551; stroke-opacity:1; 
stroke-linecap:round; stroke-linejoin:round;">
<path d="M112545 78069
L112448 78069
L112399 78093
L112375 78117
L112326 78190
L112302 78288
L112302 78483
L112326 78532
L112350 78556
L112399 78580
L112497 78580
L112545 78556
L112570 78532
L112594 78483
L112594 78361
L112570 78312
L112545 78288
L112497 78263
L112399 78263
L112350 78288
L112326 78312
L112302 78361
" />
</g>
<g style="fill:#000000; fill-opacity:0.0; 
stroke:#000000; stroke-width:39.3701; stroke-opacity:1; 
stroke-linecap:round; stroke-linejoin:round;">
</g>
<g style="fill:#000000; fill-opacity:0.0; 
stroke:#000000; stroke-width:59.0551; stroke-opacity:1; 
stroke-linecap:round; stroke-linejoin:round;">
<path d="M3937 23622
L4724 23622
" />
</g>
<g style="fill:#000000; fill-opacity:0.0; 
stroke:#000000; stroke-width:39.3701; stroke-opacity:1; 
stroke-linecap:round; stroke-linejoin:round;">
</g>
<g style="fill:#000000; fill-opacity:0.0; 
stroke:#000000; stroke-width:59.0551; stroke-opacity:1; 
stroke-linecap:round; stroke-linejoin:round;">
<path d="M3937 43307
L4724 43307
" />
</g>
<g style="fill:#000000; fill-opacity:0.0; 
stroke:#000000; stroke-width:39.3701; stroke-opacity:1; 
stroke-linecap:round; stroke-linejoin:round;">
</g>
<g style="fill:#000000; fill-opacity:0.0; 
stroke:#000000; stroke-width:59.0551; stroke-opacity:1; 
stroke-linecap:round; stroke-linejoin:round;">
<path d="M3937 62992
L4724 62992
" />
</g>
<g style="fill:#000000; fill-opacity:0.0; 
stroke:#000000; stroke-width:39.3701; stroke-opacity:1; 
stroke-linecap:round; stroke-linejoin:round;">
</g>
<g style="fill:#000000; fill-opacity:0.0; 
stroke:#000000; stroke-width:59.0551; stroke-opacity:1; 
stroke-linecap:round; stroke-linejoin:round;">
<path d="M4208 13864
L4452 13864
" />
<path d="M4160 14011
L4330 13499
L4501 14011
" />
</g>
<g style="fill:#000000; fill-opacity:0.0; 
stroke:#000000; stroke-width:39.3701; stroke-opacity:1; 
stroke-linecap:round; stroke-linejoin:round;">
</g>
<g style="fill:#000000; fill-opacity:0.0; 
stroke:#000000; stroke-width:59.0551; stroke-opacity:1; 
stroke-linecap:round; stroke-linejoin:round;">
<path d="M4367 33428
L4440 33452
L4464 33476
L4489 33525
L4489 33598
L4464 33647
L4440 33671
L4391 33696
L4196 33696
L4196 33184
L4367 33184
L4416 33208
L4440 33233
L4464 33281
L4464 33330
L4440 33379
L4416 33403
L4367 33428
L4196 33428
" />
</g>
<g style="fill:#000000; fill-opacity:0.0; 
stroke:#000000; stroke-width:39.3701; stroke-opacity:1; 
stroke-linecap:round; stroke-linejoin:round;">
</g>
<g style="fill:#000000; fill-opacity:0.0; 
stroke:#000000; stroke-width:59.0551; stroke-opacity:1; 
stroke-linecap:round; stroke-linejoin:round;">
<path d="M4489 53332
L4464 53356
L4391 53381
L4342 53381
L4269 53356
L4221 53308
L4196 53259
L4172 53161
L4172 53088
L4196 52991
L4221 52942
L4269 52893
L4342 52869
L4391 52869
L4464 52893
L4489 52918
" />
</g>
<g style="fill:#000000; fill-opacity:0.0; 
stroke:#000000; stroke-width:39.3701; stroke-opacity:1; 
stroke-linecap:round; stroke-linejoin:round;">
</g>
<g style="fill:#000000; fill-opacity:0.0; 
stroke:#000000; stroke-width:59.0551; stroke-opacity:1; 
stroke-linecap:round; stroke-linejoin:round;">
<path d="M4196 73066
L4196 72554
L4318 72554
L4391 72578
L4440 72627
L4464 72676
L4489 72773
L4489 72846
L4464 72944
L4440 72993
L4391 73041
L4318 73066
L4196 73066
" />
</g>
<g style="fill:#000000; fill-opacity:0.0; 
stroke:#000000; stroke-width:39.3701; stroke-opacity:1; 
stroke-linecap:round; stroke-linejoin:round;">
</g>
<g style="fill:#000000; fill-opacity:0.0; 
stroke:#000000; stroke-width:59.0551; stroke-opacity:1; 
stroke-linecap:round; stroke-linejoin:round;">
<path d="M112992 23622
L112205 23622
" />
</g>
<g style="fill:#000000; fill-opacity:0.0; 
stroke:#000000; stroke-width:39.3701; stroke-opacity:1; 
stroke-linecap:round; stroke-linejoin:round;">
</g>
<g style="fill:#000000; fill-opacity:0.0; 
stroke:#000000; stroke-width:59.0551; stroke-opacity:1; 
stroke-linecap:round; stroke-linejoin:round;">
<path d="M112992 43307
L112205 43307
" />
</g>
<g style="fill:#000000; fill-opacity:0.0; 
stroke:#000000; stroke-width:39.3701; stroke-opacity:1; 
stroke-linecap:round; stroke-linejoin:round;">
</g>
<g style="fill:#000000; fill-opacity:0.0; 
stroke:#000000; stroke-width:59.0551; stroke-opacity:1; 
stroke-linecap:round; stroke-linejoin:round;">
<path d="M112992 62992
L112205 62992
" />
</g>
<g style="fill:#000000; fill-opacity:0.0; 
stroke:#000000; stroke-width:39.3701; stroke-opacity:1; 
stroke-linecap:round; stroke-linejoin:round;">
</g>
<g style="fill:#000000; fill-opacity:0.0; 
stroke:#000000; stroke-width:59.0551; stroke-opacity:1; 
stroke-linecap:round; stroke-linejoin:round;">
<path d="M112477 13864
L112721 13864
" />
<path d="M112428 14011
L112599 13499
L112769 14011
" />
</g>
<g style="fill:#000000; fill-opacity:0.0; 
stroke:#000000; stroke-width:39.3701; stroke-opacity:1; 
stroke-linecap:round; stroke-linejoin:round;">
</g>
<g style="fill:#000000; fill-opacity:0.0; 
stroke:#000000; stroke-width:59.0551; stroke-opacity:1; 
stroke-linecap:round; stroke-linejoin:round;">
<path d="M112635 33428
L112708 33452
L112733 33476
L112757 33525
L112757 33598
L112733 33647
L112708 33671
L112660 33696
L112465 33696
L112465 33184
L112635 33184
L112684 33208
L112708 33233
L112733 33281
L112733 33330
L112708 33379
L112684 33403
L112635 33428
L112465 33428
" />
</g>
<g style="fill:#000000; fill-opacity:0.0; 
stroke:#000000; stroke-width:39.3701; stroke-opacity:1; 
stroke-linecap:round; stroke-linejoin:round;">
</g>
<g style="fill:#000000; fill-opacity:0.0; 
stroke:#000000; stroke-width:59.0551; stroke-opacity:1; 
stroke-linecap:round; stroke-linejoin:round;">
<path d="M112757 53332
L112733 53356
L112660 53381
L112611 53381
L112538 53356
L112489 53308
L112465 53259
L112440 53161
L112440 53088
L112465 52991
L112489 52942
L112538 52893
L112611 52869
L112660 52869
L112733 52893
L112757 52918
" />
</g>
<g style="fill:#000000; fill-opacity:0.0; 
stroke:#000000; stroke-width:39.3701; stroke-opacity:1; 
stroke-linecap:round; stroke-linejoin:round;">
</g>
<g style="fill:#000000; fill-opacity:0.0; 
stroke:#000000; stroke-width:59.0551; stroke-opacity:1; 
stroke-linecap:round; stroke-linejoin:round;">
<path d="M112465 73066
L112465 72554
L112587 72554
L112660 72578
L112708 72627
L112733 72676
L112757 72773
L112757 72846
L112733 72944
L112708 72993
L112660 73041
L112587 73066
L112465 73066
" />
</g>
<g style="fill:#000000; fill-opacity:0.0; 
stroke:#000000; stroke-width:39.3701; stroke-opacity:1; 
stroke-linecap:round; stroke-linejoin:round;">
</g>
<g style="fill:#000000; fill-opacity:0.0; 
stroke:#000000; stroke-width:59.0551; stroke-opacity:1; 
stroke-linecap:round; stroke-linejoin:round;">
<path d="M78881 76293
L78881 75703
L79022 75703
L79106 75731
L79162 75787
L79190 75843
L79219 75956
L79219 76040
L79190 76153
L79162 76209
L79106 76265
L79022 76293
L78881 76293
" />
<path d="M79725 76293
L79725 75984
L79697 75928
L79640 75899
L79528 75899
L79472 75928
" />
<path d="M79725 76265
L79669 76293
L79528 76293
L79472 76265
L79444 76209
L79444 76153
L79472 76096
L79528 76068
L79669 76068
L79725 76040
" />
<path d="M79922 75899
L80147 75899
" />
<path d="M80006 75703
L80006 76209
L80034 76265
L80090 76293
L80147 76293
" />
<path d="M80568 76265
L80512 76293
L80400 76293
L80343 76265
L80315 76209
L80315 75984
L80343 75928
L80400 75899
L80512 75899
L80568 75928
L80597 75984
L80597 76040
L80315 76096
" />
<path d="M80850 76237
L80878 76265
L80850 76293
L80822 76265
L80850 76237
L80850 76293
" />
<path d="M80850 75928
L80878 75956
L80850 75984
L80822 75956
L80850 75928
L80850 75984
" />
</g>
<g style="fill:#000000; fill-opacity:0.0; 
stroke:#000000; stroke-width:39.3701; stroke-opacity:1; 
stroke-linecap:round; stroke-linejoin:round;">
</g>
<g style="fill:#000000; fill-opacity:0.0; 
stroke:#000000; stroke-width:59.0551; stroke-opacity:1; 
stroke-linecap:round; stroke-linejoin:round;">
<path d="M69685 76577
L112205 76577
" />
</g>
<g style="fill:#000000; fill-opacity:0.0; 
stroke:#000000; stroke-width:39.3701; stroke-opacity:1; 
stroke-linecap:round; stroke-linejoin:round;">
</g>
<g style="fill:#000000; fill-opacity:0.0; 
stroke:#000000; stroke-width:59.0551; stroke-opacity:1; 
stroke-linecap:round; stroke-linejoin:round;">
<path d="M70220 77395
L70220 76805
" />
<path d="M70557 77395
L70304 77058
" />
<path d="M70557 76805
L70220 77142
" />
<path d="M70810 77395
L70810 77002
" />
<path d="M70810 76805
L70782 76833
L70810 76861
L70838 76833
L70810 76805
L70810 76861
" />
<path d="M71429 77339
L71401 77367
L71316 77395
L71260 77395
L71176 77367
L71120 77311
L71091 77255
L71063 77142
L71063 77058
L71091 76946
L71120 76889
L71176 76833
L71260 76805
L71316 76805
L71401 76833
L71429 76861
" />
<path d="M71935 77395
L71935 77086
L71907 77030
L71851 77002
L71738 77002
L71682 77030
" />
<path d="M71935 77367
L71879 77395
L71738 77395
L71682 77367
L71654 77311
L71654 77255
L71682 77199
L71738 77171
L71879 77171
L71935 77142
" />
<path d="M72469 77395
L72469 76805
" />
<path d="M72469 77367
L72413 77395
L72301 77395
L72244 77367
L72216 77339
L72188 77283
L72188 77114
L72216 77058
L72244 77030
L72301 77002
L72413 77002
L72469 77030
" />
<path d="M73201 77086
L73397 77086
" />
<path d="M73482 77395
L73201 77395
L73201 76805
L73482 76805
" />
<path d="M73735 77339
L73763 77367
L73735 77395
L73707 77367
L73735 77339
L73735 77395
" />
<path d="M74016 77395
L74016 76805
L74157 76805
L74241 76833
L74297 76889
L74325 76946
L74354 77058
L74354 77142
L74325 77255
L74297 77311
L74241 77367
L74157 77395
L74016 77395
" />
<path d="M74607 77339
L74635 77367
L74607 77395
L74579 77367
L74607 77339
L74607 77395
" />
<path d="M74860 77227
L75141 77227
" />
<path d="M74804 77395
L75000 76805
L75197 77395
" />
<path d="M75394 77339
L75422 77367
L75394 77395
L75366 77367
L75394 77339
L75394 77395
" />
<path d="M76575 77395
L76575 76805
" />
<path d="M76631 77171
L76800 77395
" />
<path d="M76800 77002
L76575 77227
" />
<path d="M77053 77395
L77053 77002
" />
<path d="M77053 76805
L77025 76833
L77053 76861
L77081 76833
L77053 76805
L77053 76861
" />
<path d="M77588 77367
L77531 77395
L77419 77395
L77363 77367
L77334 77339
L77306 77283
L77306 77114
L77334 77058
L77363 77030
L77419 77002
L77531 77002
L77588 77030
" />
<path d="M78094 77395
L78094 77086
L78066 77030
L78009 77002
L77897 77002
L77841 77030
" />
<path d="M78094 77367
L78037 77395
L77897 77395
L77841 77367
L77813 77311
L77813 77255
L77841 77199
L77897 77171
L78037 77171
L78094 77142
" />
<path d="M78628 77395
L78628 76805
" />
<path d="M78628 77367
L78572 77395
L78459 77395
L78403 77367
L78375 77339
L78347 77283
L78347 77114
L78375 77058
L78403 77030
L78459 77002
L78572 77002
L78628 77030
" />
<path d="M79612 77002
L79612 77395
" />
<path d="M79472 76777
L79331 77199
L79697 77199
" />
<path d="M79922 77339
L79950 77367
L79922 77395
L79894 77367
L79922 77339
L79922 77395
" />
<path d="M80315 76805
L80372 76805
L80428 76833
L80456 76861
L80484 76917
L80512 77030
L80512 77171
L80484 77283
L80456 77339
L80428 77367
L80372 77395
L80315 77395
L80259 77367
L80231 77339
L80203 77283
L80175 77171
L80175 77030
L80203 76917
L80231 76861
L80259 76833
L80315 76805
" />
<path d="M80765 77339
L80793 77367
L80765 77395
L80737 77367
L80765 77339
L80765 77395
" />
<path d="M81300 77002
L81300 77395
" />
<path d="M81159 76777
L81018 77199
L81384 77199
" />
<path d="M81609 77171
L82059 77171
" />
<path d="M81834 77395
L81834 76946
" />
<path d="M82593 77395
L82593 76805
" />
<path d="M82593 77367
L82537 77395
L82424 77395
L82368 77367
L82340 77339
L82312 77283
L82312 77114
L82340 77058
L82368 77030
L82424 77002
L82537 77002
L82593 77030
" />
<path d="M82790 77002
L83015 77002
" />
<path d="M82874 77395
L82874 76889
L82903 76833
L82959 76805
L83015 76805
" />
<path d="M83184 77367
L83240 77395
L83352 77395
L83409 77367
L83437 77311
L83437 77283
L83409 77227
L83352 77199
L83268 77199
L83212 77171
L83184 77114
L83184 77086
L83212 77030
L83268 77002
L83352 77002
L83409 77030
" />
<path d="M83943 77002
L83943 77480
L83915 77536
L83887 77564
L83831 77592
L83746 77592
L83690 77564
" />
<path d="M83943 77367
L83887 77395
L83774 77395
L83718 77367
L83690 77339
L83662 77283
L83662 77114
L83690 77058
L83718 77030
L83774 77002
L83887 77002
L83943 77030
" />
<path d="M84534 77395
L84196 77395
" />
<path d="M84365 77395
L84365 76805
L84309 76889
L84252 76946
L84196 76974
" />
<path d="M84787 77171
L85237 77171
" />
<path d="M85490 77367
L85546 77395
L85658 77395
L85715 77367
L85743 77311
L85743 77283
L85715 77227
L85658 77199
L85574 77199
L85518 77171
L85490 77114
L85490 77086
L85518 77030
L85574 77002
L85658 77002
L85715 77030
" />
<path d="M85912 77002
L86136 77002
" />
<path d="M85996 76805
L85996 77311
L86024 77367
L86080 77395
L86136 77395
" />
<path d="M86586 77395
L86586 77086
L86558 77030
L86502 77002
L86390 77002
L86333 77030
" />
<path d="M86586 77367
L86530 77395
L86390 77395
L86333 77367
L86305 77311
L86305 77255
L86333 77199
L86390 77171
L86530 77171
L86586 77142
" />
<path d="M86868 77395
L86868 76805
" />
<path d="M86868 77030
L86924 77002
L87036 77002
L87093 77030
L87121 77058
L87149 77114
L87149 77283
L87121 77339
L87093 77367
L87036 77395
L86924 77395
L86868 77367
" />
<path d="M87486 77395
L87430 77367
L87402 77311
L87402 76805
" />
<path d="M87936 77367
L87880 77395
L87768 77395
L87711 77367
L87683 77311
L87683 77086
L87711 77030
L87768 77002
L87880 77002
L87936 77030
L87964 77086
L87964 77142
L87683 77199
" />
</g>
<g style="fill:#000000; fill-opacity:0.0; 
stroke:#000000; stroke-width:39.3701; stroke-opacity:1; 
stroke-linecap:round; stroke-linejoin:round;">
</g>
<g style="fill:#000000; fill-opacity:0.0; 
stroke:#000000; stroke-width:59.0551; stroke-opacity:1; 
stroke-linecap:round; stroke-linejoin:round;">
<path d="M69685 75396
L112205 75396
" />
</g>
<g style="fill:#000000; fill-opacity:0.0; 
stroke:#000000; stroke-width:39.3701; stroke-opacity:1; 
stroke-linecap:round; stroke-linejoin:round;">
</g>
<g style="fill:#000000; fill-opacity:0.0; 
stroke:#000000; stroke-width:118.11; stroke-opacity:1; 
stroke-linecap:round; stroke-linejoin:round;">
<path d="M104022 76293
L103825 76012
" />
<path d="M103684 76293
L103684 75703
L103909 75703
L103965 75731
L103994 75759
L104022 75815
L104022 75899
L103994 75956
L103965 75984
L103909 76012
L103684 76012
" />
<path d="M104500 76265
L104444 76293
L104331 76293
L104275 76265
L104247 76209
L104247 75984
L104275 75928
L104331 75899
L104444 75899
L104500 75928
L104528 75984
L104528 76040
L104247 76096
" />
<path d="M104725 75899
L104865 76293
L105006 75899
" />
<path d="M105231 76237
L105259 76265
L105231 76293
L105203 76265
L105231 76237
L105231 76293
" />
<path d="M105231 75928
L105259 75956
L105231 75984
L105203 75956
L105231 75928
L105231 75984
" />
</g>
<g style="fill:#000000; fill-opacity:0.0; 
stroke:#000000; stroke-width:39.3701; stroke-opacity:1; 
stroke-linecap:round; stroke-linejoin:round;">
</g>
<g style="fill:#000000; fill-opacity:0.0; 
stroke:#000000; stroke-width:59.0551; stroke-opacity:1; 
stroke-linecap:round; stroke-linejoin:round;">
<path d="M70192 76265
L70276 76293
L70417 76293
L70473 76265
L70501 76237
L70529 76181
L70529 76124
L70501 76068
L70473 76040
L70417 76012
L70304 75984
L70248 75956
L70220 75928
L70192 75871
L70192 75815
L70220 75759
L70248 75731
L70304 75703
L70445 75703
L70529 75731
" />
<path d="M70782 76293
L70782 75899
" />
<path d="M70782 75703
L70754 75731
L70782 75759
L70810 75731
L70782 75703
L70782 75759
" />
<path d="M71007 75899
L71316 75899
L71007 76293
L71316 76293
" />
<path d="M71766 76265
L71710 76293
L71598 76293
L71541 76265
L71513 76209
L71513 75984
L71541 75928
L71598 75899
L71710 75899
L71766 75928
L71795 75984
L71795 76040
L71513 76096
" />
<path d="M72048 76237
L72076 76265
L72048 76293
L72019 76265
L72048 76237
L72048 76293
" />
<path d="M72048 75928
L72076 75956
L72048 75984
L72019 75956
L72048 75928
L72048 75984
" />
<path d="M72751 76124
L73032 76124
" />
<path d="M72694 76293
L72891 75703
L73088 76293
" />
<path d="M73538 75899
L73538 76293
" />
<path d="M73397 75674
L73257 76096
L73622 76096
" />
</g>
<g style="fill:#000000; fill-opacity:0.0; 
stroke:#000000; stroke-width:39.3701; stroke-opacity:1; 
stroke-linecap:round; stroke-linejoin:round;">
</g>
<g style="fill:#000000; fill-opacity:0.0; 
stroke:#000000; stroke-width:59.0551; stroke-opacity:1; 
stroke-linecap:round; stroke-linejoin:round;">
<path d="M103684 77395
L103684 76805
" />
<path d="M104219 77395
L104219 76805
" />
<path d="M104219 77367
L104162 77395
L104050 77395
L103994 77367
L103965 77339
L103937 77283
L103937 77114
L103965 77058
L103994 77030
L104050 77002
L104162 77002
L104219 77030
" />
<path d="M104500 77339
L104528 77367
L104500 77395
L104472 77367
L104500 77339
L104500 77395
" />
<path d="M104500 77030
L104528 77058
L104500 77086
L104472 77058
L104500 77030
L104500 77086
" />
<path d="M105540 77395
L105203 77395
" />
<path d="M105372 77395
L105372 76805
L105315 76889
L105259 76946
L105203 76974
" />
<path d="M106215 76777
L105709 77536
" />
<path d="M106721 77395
L106384 77395
" />
<path d="M106553 77395
L106553 76805
L106496 76889
L106440 76946
L106384 76974
" />
</g>
<g style="fill:#000000; fill-opacity:0.0; 
stroke:#000000; stroke-width:39.3701; stroke-opacity:1; 
stroke-linecap:round; stroke-linejoin:round;">
</g>
<g style="fill:#000000; fill-opacity:0.0; 
stroke:#000000; stroke-width:59.0551; stroke-opacity:1; 
stroke-linecap:round; stroke-linejoin:round;">
<path d="M69685 73821
L112205 73821
" />
</g>
<g style="fill:#000000; fill-opacity:0.0; 
stroke:#000000; stroke-width:39.3701; stroke-opacity:1; 
stroke-linecap:round; stroke-linejoin:round;">
</g>
<g style="fill:#000000; fill-opacity:0.0; 
stroke:#000000; stroke-width:157.48; stroke-opacity:1; 
stroke-linecap:round; stroke-linejoin:round;">
<path d="M70257 74099
L70707 74099
" />
<path d="M70384 74886
L70482 74099
" />
<path d="M70871 74886
L70937 74361
" />
<path d="M70970 74099
L70927 74136
L70960 74174
L71002 74136
L70970 74099
L70960 74174
" />
<path d="M71199 74361
L71499 74361
" />
<path d="M71345 74099
L71260 74774
L71288 74849
L71359 74886
L71434 74886
" />
<path d="M71809 74886
L71738 74849
L71710 74774
L71795 74099
" />
<path d="M72413 74849
L72334 74886
L72184 74886
L72113 74849
L72085 74774
L72123 74474
L72169 74399
L72249 74361
L72399 74361
L72469 74399
L72498 74474
L72488 74549
L72104 74624
" />
<path d="M72793 74811
L72826 74849
L72783 74886
L72751 74849
L72793 74811
L72783 74886
" />
<path d="M72844 74399
L72877 74436
L72835 74474
L72802 74436
L72844 74399
L72835 74474
" />
</g>
<g style="fill:#000000; fill-opacity:0.0; 
stroke:#000000; stroke-width:39.3701; stroke-opacity:1; 
stroke-linecap:round; stroke-linejoin:round;">
</g>
<g style="fill:#000000; fill-opacity:0.0; 
stroke:#000000; stroke-width:59.0551; stroke-opacity:1; 
stroke-linecap:round; stroke-linejoin:round;">
<path d="M70417 73070
L70220 73070
" />
<path d="M70220 73380
L70220 72789
L70501 72789
" />
<path d="M70726 73380
L70726 72986
" />
<path d="M70726 72789
L70698 72817
L70726 72845
L70754 72817
L70726 72789
L70726 72845
" />
<path d="M71091 73380
L71035 73352
L71007 73295
L71007 72789
" />
<path d="M71541 73352
L71485 73380
L71373 73380
L71316 73352
L71288 73295
L71288 73070
L71316 73014
L71373 72986
L71485 72986
L71541 73014
L71570 73070
L71570 73127
L71288 73183
" />
<path d="M71823 73323
L71851 73352
L71823 73380
L71795 73352
L71823 73323
L71823 73380
" />
<path d="M71823 73014
L71851 73042
L71823 73070
L71795 73042
L71823 73014
L71823 73070
" />
<path d="M72751 73070
L72835 73099
L72863 73127
L72891 73183
L72891 73267
L72863 73323
L72835 73352
L72779 73380
L72554 73380
L72554 72789
L72751 72789
L72807 72817
L72835 72845
L72863 72902
L72863 72958
L72835 73014
L72807 73042
L72751 73070
L72554 73070
" />
<path d="M73369 73352
L73313 73380
L73201 73380
L73144 73352
L73116 73295
L73116 73070
L73144 73014
L73201 72986
L73313 72986
L73369 73014
L73397 73070
L73397 73127
L73116 73183
" />
<path d="M73904 73380
L73904 73070
L73876 73014
L73819 72986
L73707 72986
L73651 73014
" />
<path d="M73904 73352
L73847 73380
L73707 73380
L73651 73352
L73622 73295
L73622 73239
L73651 73183
L73707 73155
L73847 73155
L73904 73127
" />
<path d="M74438 72986
L74438 73464
L74410 73520
L74382 73548
L74325 73577
L74241 73577
L74185 73548
" />
<path d="M74438 73352
L74382 73380
L74269 73380
L74213 73352
L74185 73323
L74157 73267
L74157 73099
L74185 73042
L74213 73014
L74269 72986
L74382 72986
L74438 73014
" />
<path d="M74804 73380
L74747 73352
L74719 73295
L74719 72789
" />
<path d="M75253 73352
L75197 73380
L75085 73380
L75028 73352
L75000 73295
L75000 73070
L75028 73014
L75085 72986
L75197 72986
L75253 73014
L75282 73070
L75282 73127
L75000 73183
" />
<path d="M75732 73070
L75816 73099
L75844 73127
L75872 73183
L75872 73267
L75844 73323
L75816 73352
L75760 73380
L75535 73380
L75535 72789
L75732 72789
L75788 72817
L75816 72845
L75844 72902
L75844 72958
L75816 73014
L75788 73042
L75732 73070
L75535 73070
" />
<path d="M76210 73380
L76153 73352
L76125 73323
L76097 73267
L76097 73099
L76125 73042
L76153 73014
L76210 72986
L76294 72986
L76350 73014
L76378 73042
L76406 73099
L76406 73267
L76378 73323
L76350 73352
L76294 73380
L76210 73380
" />
<path d="M76660 72986
L76660 73380
" />
<path d="M76660 73042
L76688 73014
L76744 72986
L76828 72986
L76885 73014
L76913 73070
L76913 73380
" />
<path d="M77419 73352
L77363 73380
L77250 73380
L77194 73352
L77166 73295
L77166 73070
L77194 73014
L77250 72986
L77363 72986
L77419 73014
L77447 73070
L77447 73127
L77166 73183
" />
<path d="M77559 73436
L78009 73436
" />
<path d="M78122 73352
L78178 73380
L78291 73380
L78347 73352
L78375 73295
L78375 73267
L78347 73211
L78291 73183
L78206 73183
L78150 73155
L78122 73099
L78122 73070
L78150 73014
L78206 72986
L78291 72986
L78347 73014
" />
<path d="M78853 73352
L78797 73380
L78684 73380
L78628 73352
L78600 73295
L78600 73070
L78628 73014
L78684 72986
L78797 72986
L78853 73014
L78881 73070
L78881 73127
L78600 73183
" />
<path d="M79134 73380
L79134 72986
" />
<path d="M79134 73099
L79162 73042
L79190 73014
L79247 72986
L79303 72986
" />
<path d="M79500 73380
L79500 72986
" />
<path d="M79500 72789
L79472 72817
L79500 72845
L79528 72817
L79500 72789
L79500 72845
" />
<path d="M80034 73380
L80034 73070
L80006 73014
L79950 72986
L79837 72986
L79781 73014
" />
<path d="M80034 73352
L79978 73380
L79837 73380
L79781 73352
L79753 73295
L79753 73239
L79781 73183
L79837 73155
L79978 73155
L80034 73127
" />
<path d="M80400 73380
L80343 73352
L80315 73295
L80315 72789
" />
<path d="M80484 73436
L80934 73436
" />
<path d="M81328 73352
L81271 73380
L81159 73380
L81103 73352
L81075 73323
L81046 73267
L81046 73099
L81075 73042
L81103 73014
L81159 72986
L81271 72986
L81328 73014
" />
<path d="M81834 73380
L81834 73070
L81806 73014
L81750 72986
L81637 72986
L81581 73014
" />
<path d="M81834 73352
L81778 73380
L81637 73380
L81581 73352
L81553 73295
L81553 73239
L81581 73183
L81637 73155
L81778 73155
L81834 73127
" />
<path d="M82115 72986
L82115 73577
" />
<path d="M82115 73014
L82171 72986
L82284 72986
L82340 73014
L82368 73042
L82396 73099
L82396 73267
L82368 73323
L82340 73352
L82284 73380
L82171 73380
L82115 73352
" />
<path d="M82874 73352
L82818 73380
L82706 73380
L82649 73352
L82621 73295
L82621 73070
L82649 73014
L82706 72986
L82818 72986
L82874 73014
L82903 73070
L82903 73127
L82621 73183
" />
<path d="M83156 73323
L83184 73352
L83156 73380
L83127 73352
L83156 73323
L83156 73380
" />
<path d="M83437 73380
L83437 72789
" />
<path d="M83493 73155
L83662 73380
" />
<path d="M83662 72986
L83437 73211
" />
<path d="M83915 73380
L83915 72986
" />
<path d="M83915 72789
L83887 72817
L83915 72845
L83943 72817
L83915 72789
L83915 72845
" />
<path d="M84449 73352
L84393 73380
L84280 73380
L84224 73352
L84196 73323
L84168 73267
L84168 73099
L84196 73042
L84224 73014
L84280 72986
L84393 72986
L84449 73014
" />
<path d="M84955 73380
L84955 73070
L84927 73014
L84871 72986
L84759 72986
L84702 73014
" />
<path d="M84955 73352
L84899 73380
L84759 73380
L84702 73352
L84674 73295
L84674 73239
L84702 73183
L84759 73155
L84899 73155
L84955 73127
" />
<path d="M85490 73380
L85490 72789
" />
<path d="M85490 73352
L85433 73380
L85321 73380
L85265 73352
L85237 73323
L85208 73267
L85208 73099
L85237 73042
L85265 73014
L85321 72986
L85433 72986
L85490 73014
" />
<path d="M85630 73436
L86080 73436
" />
<path d="M86221 72986
L86221 73577
" />
<path d="M86221 73014
L86277 72986
L86390 72986
L86446 73014
L86474 73042
L86502 73099
L86502 73267
L86474 73323
L86446 73352
L86390 73380
L86277 73380
L86221 73352
" />
<path d="M87008 73352
L86952 73380
L86840 73380
L86783 73352
L86755 73323
L86727 73267
L86727 73099
L86755 73042
L86783 73014
L86840 72986
L86952 72986
L87008 73014
" />
<path d="M87261 73380
L87261 72789
" />
<path d="M87261 73014
L87318 72986
L87430 72986
L87486 73014
L87514 73042
L87543 73099
L87543 73267
L87514 73323
L87486 73352
L87430 73380
L87318 73380
L87261 73352
" />
</g>
<g style="fill:#000000; fill-opacity:0.0; 
stroke:#000000; stroke-width:39.3701; stroke-opacity:1; 
stroke-linecap:round; stroke-linejoin:round;">
</g>
<g style="fill:#000000; fill-opacity:0.0; 
stroke:#000000; stroke-width:59.0551; stroke-opacity:1; 
stroke-linecap:round; stroke-linejoin:round;">
<path d="M69685 71459
L112205 71459
" />
</g>
<g style="fill:#000000; fill-opacity:0.0; 
stroke:#000000; stroke-width:39.3701; stroke-opacity:1; 
stroke-linecap:round; stroke-linejoin:round;">
</g>
<g style="fill:#000000; fill-opacity:0.0; 
stroke:#000000; stroke-width:59.0551; stroke-opacity:1; 
stroke-linecap:round; stroke-linejoin:round;">
<path d="M70192 72289
L70276 72317
L70417 72317
L70473 72289
L70501 72260
L70529 72204
L70529 72148
L70501 72092
L70473 72064
L70417 72036
L70304 72007
L70248 71979
L70220 71951
L70192 71895
L70192 71839
L70220 71782
L70248 71754
L70304 71726
L70445 71726
L70529 71754
" />
<path d="M70782 72317
L70782 71726
" />
<path d="M71035 72317
L71035 72007
L71007 71951
L70951 71923
L70867 71923
L70810 71951
L70782 71979
" />
<path d="M71541 72289
L71485 72317
L71373 72317
L71316 72289
L71288 72232
L71288 72007
L71316 71951
L71373 71923
L71485 71923
L71541 71951
L71570 72007
L71570 72064
L71288 72120
" />
<path d="M72048 72289
L71991 72317
L71879 72317
L71823 72289
L71795 72232
L71795 72007
L71823 71951
L71879 71923
L71991 71923
L72048 71951
L72076 72007
L72076 72064
L71795 72120
" />
<path d="M72244 71923
L72469 71923
" />
<path d="M72329 71726
L72329 72232
L72357 72289
L72413 72317
L72469 72317
" />
<path d="M72666 72260
L72694 72289
L72666 72317
L72638 72289
L72666 72260
L72666 72317
" />
<path d="M72666 71951
L72694 71979
L72666 72007
L72638 71979
L72666 71951
L72666 72007
" />
</g>
<g style="fill:#000000; fill-opacity:0.0; 
stroke:#000000; stroke-width:39.3701; stroke-opacity:1; 
stroke-linecap:round; stroke-linejoin:round;">
</g>
<g style="fill:#000000; fill-opacity:0.0; 
stroke:#000000; stroke-width:59.0551; stroke-opacity:1; 
stroke-linecap:round; stroke-linejoin:round;">
<path d="M77559 75396
L77559 76577
" />
</g>
<g style="fill:#000000; fill-opacity:0.0; 
stroke:#000000; stroke-width:39.3701; stroke-opacity:1; 
stroke-linecap:round; stroke-linejoin:round;">
</g>
<g style="fill:#000000; fill-opacity:0.0; 
stroke:#000000; stroke-width:59.0551; stroke-opacity:1; 
stroke-linecap:round; stroke-linejoin:round;">
<path d="M102756 75396
L102756 77955
" />
</g>
<g style="fill:#C2C200; fill-opacity:0.0; 
stroke:#C2C200; stroke-width:59.0551; stroke-opacity:1; 
stroke-linecap:round; stroke-linejoin:round;">
</g>
<g style="fill:#C2C200; fill-opacity:0.0; 
stroke:#C2C200; stroke-width:39.3701; stroke-opacity:1; 
stroke-linecap:round; stroke-linejoin:round;">
<path d="M65000 24000
L72500 24000
" />
<path d="M65000 26500
L65000 24000
" />
<path d="M58000 26500
L65000 26500
" />
<path d="M58000 24000
L58000 26500
" />
<path d="M48500 24000
L58000 24000
" />
<path d="M46500 26000
L46500 48000
" />
<path d="M48500 24000 A2000 2000 0.0 0 0 46500 26000 " />
<path d="M74500 26000
L74500 48000
" />
<path d="M48500 50000
L72500 50000
" />
<path d="M46500 48000 A2000 2000 0.0 0 0 48500 50000 " />
<path d="M72500 50000 A2000 2000 0.0 0 0 74500 48000 " />
<path d="M74500 26000 A2000 2000 0.0 0 0 72500 24000 " />
</g>
<g style="fill:#C2C200; fill-opacity:0.0; 
stroke:#C2C200; stroke-width:59.0551; stroke-opacity:1; 
stroke-linecap:round; stroke-linejoin:round;">
<path d="M52813 31065
L52832 31084
L52851 31140
L52851 31178
L52832 31234
L52795 31271
L52757 31290
L52682 31309
L52626 31309
L52551 31290
L52513 31271
L52476 31234
L52457 31178
L52457 31140
L52476 31084
L52495 31065
" />
<path d="M52851 30690
L52851 30915
" />
<path d="M52851 30803
L52457 30803
L52513 30840
L52551 30878
L52570 30915
" />
<path d="M52813 36065
L52832 36084
L52851 36140
L52851 36178
L52832 36234
L52795 36271
L52757 36290
L52682 36309
L52626 36309
L52551 36290
L52513 36271
L52476 36234
L52457 36178
L52457 36140
L52476 36084
L52495 36065
" />
<path d="M52495 35915
L52476 35896
L52457 35859
L52457 35765
L52476 35728
L52495 35709
L52532 35690
L52570 35690
L52626 35709
L52851 35934
L52851 35690
" />
<path d="M61313 31065
L61332 31084
L61351 31140
L61351 31178
L61332 31234
L61295 31271
L61257 31290
L61182 31309
L61126 31309
L61051 31290
L61013 31271
L60976 31234
L60957 31178
L60957 31140
L60976 31084
L60995 31065
" />
<path d="M60957 30934
L60957 30690
L61107 30821
L61107 30765
L61126 30728
L61145 30709
L61182 30690
L61276 30690
L61313 30709
L61332 30728
L61351 30765
L61351 30878
L61332 30915
L61313 30934
" />
<path d="M61313 36065
L61332 36084
L61351 36140
L61351 36178
L61332 36234
L61295 36271
L61257 36290
L61182 36309
L61126 36309
L61051 36290
L61013 36271
L60976 36234
L60957 36178
L60957 36140
L60976 36084
L60995 36065
" />
<path d="M61088 35728
L61351 35728
" />
<path d="M60938 35821
L61220 35915
L61220 35671
" />
<path d="M54467 33065
L54486 33084
L54504 33140
L54504 33178
L54486 33234
L54448 33271
L54411 33290
L54336 33309
L54279 33309
L54204 33290
L54167 33271
L54129 33234
L54111 33178
L54111 33140
L54129 33084
L54148 33065
" />
<path d="M54111 32709
L54111 32896
L54298 32915
L54279 32896
L54261 32859
L54261 32765
L54279 32728
L54298 32709
L54336 32690
L54429 32690
L54467 32709
L54486 32728
L54504 32765
L54504 32859
L54486 32896
L54467 32915
" />
<path d="M62967 33065
L62986 33084
L63004 33140
L63004 33178
L62986 33234
L62948 33271
L62911 33290
L62836 33309
L62779 33309
L62704 33290
L62667 33271
L62629 33234
L62611 33178
L62611 33140
L62629 33084
L62648 33065
" />
<path d="M62611 32728
L62611 32803
L62629 32840
L62648 32859
L62704 32896
L62779 32915
L62929 32915
L62967 32896
L62986 32878
L63004 32840
L63004 32765
L62986 32728
L62967 32709
L62929 32690
L62836 32690
L62798 32709
L62779 32728
L62761 32765
L62761 32840
L62779 32878
L62798 32896
L62836 32915
" />
<path d="M55934 28813
L55915 28832
L55859 28851
L55821 28851
L55765 28832
L55728 28795
L55709 28757
L55690 28682
L55690 28626
L55709 28551
L55728 28513
L55765 28476
L55821 28457
L55859 28457
L55915 28476
L55934 28495
" />
<path d="M56065 28457
L56328 28457
L56159 28851
" />
<path d="M64434 28813
L64415 28832
L64359 28851
L64321 28851
L64265 28832
L64228 28795
L64209 28757
L64190 28682
L64190 28626
L64209 28551
L64228 28513
L64265 28476
L64321 28457
L64359 28457
L64415 28476
L64434 28495
" />
<path d="M64659 28626
L64621 28607
L64603 28588
L64584 28551
L64584 28532
L64603 28495
L64621 28476
L64659 28457
L64734 28457
L64771 28476
L64790 28495
L64809 28532
L64809 28551
L64790 28588
L64771 28607
L64734 28626
L64659 28626
L64621 28645
L64603 28663
L64584 28701
L64584 28776
L64603 28813
L64621 28832
L64659 28851
L64734 28851
L64771 28832
L64790 28813
L64809 28776
L64809 28701
L64790 28663
L64771 28645
L64734 28626
" />
<path d="M54467 29065
L54486 29084
L54504 29140
L54504 29178
L54486 29234
L54448 29271
L54411 29290
L54336 29309
L54279 29309
L54204 29290
L54167 29271
L54129 29234
L54111 29178
L54111 29140
L54129 29084
L54148 29065
" />
<path d="M54504 28878
L54504 28803
L54486 28765
L54467 28746
L54411 28709
L54336 28690
L54186 28690
L54148 28709
L54129 28728
L54111 28765
L54111 28840
L54129 28878
L54148 28896
L54186 28915
L54279 28915
L54317 28896
L54336 28878
L54354 28840
L54354 28765
L54336 28728
L54317 28709
L54279 28690
" />
<path d="M58746 27313
L58728 27332
L58671 27351
L58634 27351
L58578 27332
L58540 27295
L58521 27257
L58503 27182
L58503 27126
L58521 27051
L58540 27013
L58578 26976
L58634 26957
L58671 26957
L58728 26976
L58746 26995
" />
<path d="M59121 27351
L58896 27351
" />
<path d="M59009 27351
L59009 26957
L58971 27013
L58934 27051
L58896 27070
" />
<path d="M59365 26957
L59403 26957
L59440 26976
L59459 26995
L59478 27032
L59496 27107
L59496 27201
L59478 27276
L59459 27313
L59440 27332
L59403 27351
L59365 27351
L59328 27332
L59309 27313
L59290 27276
L59271 27201
L59271 27107
L59290 27032
L59309 26995
L59328 26976
L59365 26957
" />
<path d="M55746 39813
L55728 39832
L55671 39851
L55634 39851
L55578 39832
L55540 39795
L55521 39757
L55503 39682
L55503 39626
L55521 39551
L55540 39513
L55578 39476
L55634 39457
L55671 39457
L55728 39476
L55746 39495
" />
<path d="M56121 39851
L55896 39851
" />
<path d="M56009 39851
L56009 39457
L55971 39513
L55934 39551
L55896 39570
" />
<path d="M56496 39851
L56271 39851
" />
<path d="M56384 39851
L56384 39457
L56346 39513
L56309 39551
L56271 39570
" />
<path d="M64246 39813
L64228 39832
L64171 39851
L64134 39851
L64078 39832
L64040 39795
L64021 39757
L64003 39682
L64003 39626
L64021 39551
L64040 39513
L64078 39476
L64134 39457
L64171 39457
L64228 39476
L64246 39495
" />
<path d="M64621 39851
L64396 39851
" />
<path d="M64509 39851
L64509 39457
L64471 39513
L64434 39551
L64396 39570
" />
<path d="M64771 39495
L64790 39476
L64828 39457
L64921 39457
L64959 39476
L64978 39495
L64996 39532
L64996 39570
L64978 39626
L64753 39851
L64996 39851
" />
<path d="M54467 44253
L54486 44271
L54504 44328
L54504 44365
L54486 44421
L54448 44459
L54411 44478
L54336 44496
L54279 44496
L54204 44478
L54167 44459
L54129 44421
L54111 44365
L54111 44328
L54129 44271
L54148 44253
" />
<path d="M54504 43878
L54504 44103
" />
<path d="M54504 43990
L54111 43990
L54167 44028
L54204 44065
L54223 44103
" />
<path d="M54111 43746
L54111 43503
L54261 43634
L54261 43578
L54279 43540
L54298 43521
L54336 43503
L54429 43503
L54467 43521
L54486 43540
L54504 43578
L54504 43690
L54486 43728
L54467 43746
" />
<path d="M62967 44253
L62986 44271
L63004 44328
L63004 44365
L62986 44421
L62948 44459
L62911 44478
L62836 44496
L62779 44496
L62704 44478
L62667 44459
L62629 44421
L62611 44365
L62611 44328
L62629 44271
L62648 44253
" />
<path d="M63004 43878
L63004 44103
" />
<path d="M63004 43990
L62611 43990
L62667 44028
L62704 44065
L62723 44103
" />
<path d="M62742 43540
L63004 43540
" />
<path d="M62592 43634
L62873 43728
L62873 43484
" />
<path d="M52813 42253
L52832 42271
L52851 42328
L52851 42365
L52832 42421
L52795 42459
L52757 42478
L52682 42496
L52626 42496
L52551 42478
L52513 42459
L52476 42421
L52457 42365
L52457 42328
L52476 42271
L52495 42253
" />
<path d="M52851 41878
L52851 42103
" />
<path d="M52851 41990
L52457 41990
L52513 42028
L52551 42065
L52570 42103
" />
<path d="M52457 41521
L52457 41709
L52645 41728
L52626 41709
L52607 41671
L52607 41578
L52626 41540
L52645 41521
L52682 41503
L52776 41503
L52813 41521
L52832 41540
L52851 41578
L52851 41671
L52832 41709
L52813 41728
" />
<path d="M52813 46753
L52832 46771
L52851 46828
L52851 46865
L52832 46921
L52795 46959
L52757 46978
L52682 46996
L52626 46996
L52551 46978
L52513 46959
L52476 46921
L52457 46865
L52457 46828
L52476 46771
L52495 46753
" />
<path d="M52851 46378
L52851 46603
" />
<path d="M52851 46490
L52457 46490
L52513 46528
L52551 46565
L52570 46603
" />
<path d="M52457 46040
L52457 46115
L52476 46153
L52495 46171
L52551 46209
L52626 46228
L52776 46228
L52813 46209
L52832 46190
L52851 46153
L52851 46078
L52832 46040
L52813 46021
L52776 46003
L52682 46003
L52645 46021
L52626 46040
L52607 46078
L52607 46153
L52626 46190
L52645 46209
L52682 46228
" />
<path d="M61313 42253
L61332 42271
L61351 42328
L61351 42365
L61332 42421
L61295 42459
L61257 42478
L61182 42496
L61126 42496
L61051 42478
L61013 42459
L60976 42421
L60957 42365
L60957 42328
L60976 42271
L60995 42253
" />
<path d="M61351 41878
L61351 42103
" />
<path d="M61351 41990
L60957 41990
L61013 42028
L61051 42065
L61070 42103
" />
<path d="M60957 41746
L60957 41484
L61351 41653
" />
<path d="M61313 46753
L61332 46771
L61351 46828
L61351 46865
L61332 46921
L61295 46959
L61257 46978
L61182 46996
L61126 46996
L61051 46978
L61013 46959
L60976 46921
L60957 46865
L60957 46828
L60976 46771
L60995 46753
" />
<path d="M61351 46378
L61351 46603
" />
<path d="M61351 46490
L60957 46490
L61013 46528
L61051 46565
L61070 46603
" />
<path d="M61126 46153
L61107 46190
L61088 46209
L61051 46228
L61032 46228
L60995 46209
L60976 46190
L60957 46153
L60957 46078
L60976 46040
L60995 46021
L61032 46003
L61051 46003
L61088 46021
L61107 46040
L61126 46078
L61126 46153
L61145 46190
L61163 46209
L61201 46228
L61276 46228
L61313 46209
L61332 46190
L61351 46153
L61351 46078
L61332 46040
L61313 46021
L61276 46003
L61201 46003
L61163 46021
L61145 46040
L61126 46078
" />
<path d="M54989 36290
L54595 36290
L54595 36196
L54614 36140
L54651 36103
L54689 36084
L54764 36065
L54820 36065
L54895 36084
L54932 36103
L54970 36140
L54989 36196
L54989 36290
" />
<path d="M54989 35690
L54989 35915
" />
<path d="M54989 35803
L54595 35803
L54651 35840
L54689 35878
L54707 35915
" />
<path d="M63489 36290
L63095 36290
L63095 36196
L63114 36140
L63151 36103
L63189 36084
L63264 36065
L63320 36065
L63395 36084
L63432 36103
L63470 36140
L63489 36196
L63489 36290
" />
<path d="M63132 35915
L63114 35896
L63095 35859
L63095 35765
L63114 35728
L63132 35709
L63170 35690
L63207 35690
L63264 35709
L63489 35934
L63489 35690
" />
<path d="M56989 36290
L56595 36290
L56595 36196
L56614 36140
L56651 36103
L56689 36084
L56764 36065
L56820 36065
L56895 36084
L56932 36103
L56970 36140
L56989 36196
L56989 36290
" />
<path d="M56595 35934
L56595 35690
L56745 35821
L56745 35765
L56764 35728
L56782 35709
L56820 35690
L56914 35690
L56951 35709
L56970 35728
L56989 35765
L56989 35878
L56970 35915
L56951 35934
" />
<path d="M65489 36290
L65095 36290
L65095 36196
L65114 36140
L65151 36103
L65189 36084
L65264 36065
L65320 36065
L65395 36084
L65432 36103
L65470 36140
L65489 36196
L65489 36290
" />
<path d="M65226 35728
L65489 35728
" />
<path d="M65076 35821
L65357 35915
L65357 35671
" />
<path d="M54367 27290
L53973 27290
L53973 27196
L53992 27140
L54029 27103
L54067 27084
L54142 27065
L54198 27065
L54273 27084
L54310 27103
L54348 27140
L54367 27196
L54367 27290
" />
<path d="M53973 26709
L53973 26896
L54160 26915
L54142 26896
L54123 26859
L54123 26765
L54142 26728
L54160 26709
L54198 26690
L54292 26690
L54329 26709
L54348 26728
L54367 26765
L54367 26859
L54348 26896
L54329 26915
" />
<path d="M56989 46790
L56595 46790
L56595 46696
L56614 46640
L56651 46603
L56689 46584
L56764 46565
L56820 46565
L56895 46584
L56932 46603
L56970 46640
L56989 46696
L56989 46790
" />
<path d="M56595 46228
L56595 46303
L56614 46340
L56632 46359
L56689 46396
L56764 46415
L56914 46415
L56951 46396
L56970 46378
L56989 46340
L56989 46265
L56970 46228
L56951 46209
L56914 46190
L56820 46190
L56782 46209
L56764 46228
L56745 46265
L56745 46340
L56764 46378
L56782 46396
L56820 46415
" />
<path d="M65489 46790
L65095 46790
L65095 46696
L65114 46640
L65151 46603
L65189 46584
L65264 46565
L65320 46565
L65395 46584
L65432 46603
L65470 46640
L65489 46696
L65489 46790
" />
<path d="M65095 46434
L65095 46171
L65489 46340
" />
<path d="M54989 46790
L54595 46790
L54595 46696
L54614 46640
L54651 46603
L54689 46584
L54764 46565
L54820 46565
L54895 46584
L54932 46603
L54970 46640
L54989 46696
L54989 46790
" />
<path d="M54764 46340
L54745 46378
L54726 46396
L54689 46415
L54670 46415
L54632 46396
L54614 46378
L54595 46340
L54595 46265
L54614 46228
L54632 46209
L54670 46190
L54689 46190
L54726 46209
L54745 46228
L54764 46265
L54764 46340
L54782 46378
L54801 46396
L54839 46415
L54914 46415
L54951 46396
L54970 46378
L54989 46340
L54989 46265
L54970 46228
L54951 46209
L54914 46190
L54839 46190
L54801 46209
L54782 46228
L54764 46265
" />
<path d="M63489 46790
L63095 46790
L63095 46696
L63114 46640
L63151 46603
L63189 46584
L63264 46565
L63320 46565
L63395 46584
L63432 46603
L63470 46640
L63489 46696
L63489 46790
" />
<path d="M63489 46378
L63489 46303
L63470 46265
L63451 46246
L63395 46209
L63320 46190
L63170 46190
L63132 46209
L63114 46228
L63095 46265
L63095 46340
L63114 46378
L63132 46396
L63170 46415
L63264 46415
L63301 46396
L63320 46378
L63339 46340
L63339 46265
L63320 46228
L63301 46209
L63264 46190
" />
<path d="M49584 29031
L49865 29031
L49921 29049
L49959 29087
L49978 29143
L49978 29181
" />
<path d="M49978 28637
L49978 28862
" />
<path d="M49978 28750
L49584 28750
L49640 28787
L49678 28825
L49696 28862
" />
<path d="M74584 29031
L74865 29031
L74921 29049
L74959 29087
L74978 29143
L74978 29181
" />
<path d="M74621 28862
L74603 28843
L74584 28806
L74584 28712
L74603 28675
L74621 28656
L74659 28637
L74696 28637
L74753 28656
L74978 28881
L74978 28637
" />
<path d="M49584 41031
L49865 41031
L49921 41049
L49959 41087
L49978 41143
L49978 41181
" />
<path d="M49584 40881
L49584 40637
L49734 40768
L49734 40712
L49753 40675
L49771 40656
L49809 40637
L49903 40637
L49940 40656
L49959 40675
L49978 40712
L49978 40825
L49959 40862
L49940 40881
" />
<path d="M74584 41031
L74865 41031
L74921 41049
L74959 41087
L74978 41143
L74978 41181
" />
<path d="M74715 40675
L74978 40675
" />
<path d="M74565 40768
L74846 40862
L74846 40618
" />
<path d="M58709 35685
L58709 35292
L58859 35292
L58896 35311
L58915 35329
L58934 35367
L58934 35423
L58915 35461
L58896 35479
L58859 35498
L58709 35498
" />
<path d="M59309 35685
L59084 35685
" />
<path d="M59196 35685
L59196 35292
L59159 35348
L59121 35386
L59084 35404
" />
<path d="M67209 35685
L67209 35292
L67359 35292
L67396 35311
L67415 35329
L67434 35367
L67434 35423
L67415 35461
L67396 35479
L67359 35498
L67209 35498
" />
<path d="M67584 35329
L67603 35311
L67640 35292
L67734 35292
L67771 35311
L67790 35329
L67809 35367
L67809 35404
L67790 35461
L67565 35685
L67809 35685
" />
<path d="M58709 46685
L58709 46292
L58859 46292
L58896 46311
L58915 46329
L58934 46367
L58934 46423
L58915 46461
L58896 46479
L58859 46498
L58709 46498
" />
<path d="M59290 46292
L59103 46292
L59084 46479
L59103 46461
L59140 46442
L59234 46442
L59271 46461
L59290 46479
L59309 46517
L59309 46610
L59290 46648
L59271 46667
L59234 46685
L59140 46685
L59103 46667
L59084 46648
" />
<path d="M67209 46685
L67209 46292
L67359 46292
L67396 46311
L67415 46329
L67434 46367
L67434 46423
L67415 46461
L67396 46479
L67359 46498
L67209 46498
" />
<path d="M67771 46292
L67696 46292
L67659 46311
L67640 46329
L67603 46386
L67584 46461
L67584 46610
L67603 46648
L67621 46667
L67659 46685
L67734 46685
L67771 46667
L67790 46648
L67809 46610
L67809 46517
L67790 46479
L67771 46461
L67734 46442
L67659 46442
L67621 46461
L67603 46479
L67584 46517
" />
<path d="M69209 24670
L69209 24276
L69359 24276
L69396 24295
L69415 24314
L69434 24351
L69434 24407
L69415 24445
L69396 24464
L69359 24482
L69209 24482
" />
<path d="M69659 24445
L69621 24426
L69603 24407
L69584 24370
L69584 24351
L69603 24314
L69621 24295
L69659 24276
L69734 24276
L69771 24295
L69790 24314
L69809 24351
L69809 24370
L69790 24407
L69771 24426
L69734 24445
L69659 24445
L69621 24464
L69603 24482
L69584 24520
L69584 24595
L69603 24632
L69621 24651
L69659 24670
L69734 24670
L69771 24651
L69790 24632
L69809 24595
L69809 24520
L69790 24482
L69771 24464
L69734 24445
" />
<path d="M50209 24670
L50209 24276
L50359 24276
L50396 24295
L50415 24314
L50434 24351
L50434 24407
L50415 24445
L50396 24464
L50359 24482
L50209 24482
" />
<path d="M50621 24670
L50696 24670
L50734 24651
L50753 24632
L50790 24576
L50809 24501
L50809 24351
L50790 24314
L50771 24295
L50734 24276
L50659 24276
L50621 24295
L50603 24314
L50584 24351
L50584 24445
L50603 24482
L50621 24501
L50659 24520
L50734 24520
L50771 24501
L50790 24482
L50809 24445
" />
<path d="M56504 38065
L56317 38196
" />
<path d="M56504 38290
L56111 38290
L56111 38140
L56129 38103
L56148 38084
L56186 38065
L56242 38065
L56279 38084
L56298 38103
L56317 38140
L56317 38290
" />
<path d="M56504 37690
L56504 37915
" />
<path d="M56504 37803
L56111 37803
L56167 37840
L56204 37878
L56223 37915
" />
<path d="M65004 38065
L64817 38196
" />
<path d="M65004 38290
L64611 38290
L64611 38140
L64629 38103
L64648 38084
L64686 38065
L64742 38065
L64779 38084
L64798 38103
L64817 38140
L64817 38290
" />
<path d="M64648 37915
L64629 37896
L64611 37859
L64611 37765
L64629 37728
L64648 37709
L64686 37690
L64723 37690
L64779 37709
L65004 37934
L65004 37690
" />
<path d="M58504 38065
L58317 38196
" />
<path d="M58504 38290
L58111 38290
L58111 38140
L58129 38103
L58148 38084
L58186 38065
L58242 38065
L58279 38084
L58298 38103
L58317 38140
L58317 38290
" />
<path d="M58111 37934
L58111 37690
L58261 37821
L58261 37765
L58279 37728
L58298 37709
L58336 37690
L58429 37690
L58467 37709
L58486 37728
L58504 37765
L58504 37878
L58486 37915
L58467 37934
" />
<path d="M67004 38065
L66817 38196
" />
<path d="M67004 38290
L66611 38290
L66611 38140
L66629 38103
L66648 38084
L66686 38065
L66742 38065
L66779 38084
L66798 38103
L66817 38140
L66817 38290
" />
<path d="M66742 37728
L67004 37728
" />
<path d="M66592 37821
L66873 37915
L66873 37671
" />
<path d="M52851 25065
L52663 25196
" />
<path d="M52851 25290
L52457 25290
L52457 25140
L52476 25103
L52495 25084
L52532 25065
L52588 25065
L52626 25084
L52645 25103
L52663 25140
L52663 25290
" />
<path d="M52457 24709
L52457 24896
L52645 24915
L52626 24896
L52607 24859
L52607 24765
L52626 24728
L52645 24709
L52682 24690
L52776 24690
L52813 24709
L52832 24728
L52851 24765
L52851 24859
L52832 24896
L52813 24915
" />
<path d="M58504 48565
L58317 48696
" />
<path d="M58504 48790
L58111 48790
L58111 48640
L58129 48603
L58148 48584
L58186 48565
L58242 48565
L58279 48584
L58298 48603
L58317 48640
L58317 48790
" />
<path d="M58111 48228
L58111 48303
L58129 48340
L58148 48359
L58204 48396
L58279 48415
L58429 48415
L58467 48396
L58486 48378
L58504 48340
L58504 48265
L58486 48228
L58467 48209
L58429 48190
L58336 48190
L58298 48209
L58279 48228
L58261 48265
L58261 48340
L58279 48378
L58298 48396
L58336 48415
" />
<path d="M67004 48565
L66817 48696
" />
<path d="M67004 48790
L66611 48790
L66611 48640
L66629 48603
L66648 48584
L66686 48565
L66742 48565
L66779 48584
L66798 48603
L66817 48640
L66817 48790
" />
<path d="M66611 48434
L66611 48171
L67004 48340
" />
<path d="M56504 48565
L56317 48696
" />
<path d="M56504 48790
L56111 48790
L56111 48640
L56129 48603
L56148 48584
L56186 48565
L56242 48565
L56279 48584
L56298 48603
L56317 48640
L56317 48790
" />
<path d="M56279 48340
L56261 48378
L56242 48396
L56204 48415
L56186 48415
L56148 48396
L56129 48378
L56111 48340
L56111 48265
L56129 48228
L56148 48209
L56186 48190
L56204 48190
L56242 48209
L56261 48228
L56279 48265
L56279 48340
L56298 48378
L56317 48396
L56354 48415
L56429 48415
L56467 48396
L56486 48378
L56504 48340
L56504 48265
L56486 48228
L56467 48209
L56429 48190
L56354 48190
L56317 48209
L56298 48228
L56279 48265
" />
<path d="M65004 48565
L64817 48696
" />
<path d="M65004 48790
L64611 48790
L64611 48640
L64629 48603
L64648 48584
L64686 48565
L64742 48565
L64779 48584
L64798 48603
L64817 48640
L64817 48790
" />
<path d="M65004 48378
L65004 48303
L64986 48265
L64967 48246
L64911 48209
L64836 48190
L64686 48190
L64648 48209
L64629 48228
L64611 48265
L64611 48340
L64629 48378
L64648 48396
L64686 48415
L64779 48415
L64817 48396
L64836 48378
L64854 48340
L64854 48265
L64836 48228
L64817 48209
L64779 48190
" />
<path d="M56034 32799
L56353 32799
L56390 32781
L56409 32762
L56428 32724
L56428 32649
L56409 32612
L56390 32593
L56353 32574
L56034 32574
" />
<path d="M56428 32181
L56428 32406
" />
<path d="M56428 32293
L56034 32293
L56090 32331
L56128 32368
L56146 32406
" />
<path d="M64534 32799
L64853 32799
L64890 32781
L64909 32762
L64928 32724
L64928 32649
L64909 32612
L64890 32593
L64853 32574
L64534 32574
" />
<path d="M64571 32406
L64553 32387
L64534 32350
L64534 32256
L64553 32218
L64571 32200
L64609 32181
L64646 32181
L64703 32200
L64928 32425
L64928 32181
" />
<path d="M55700 25484
L55700 25803
L55718 25840
L55737 25859
L55775 25878
L55850 25878
L55887 25859
L55906 25840
L55925 25803
L55925 25484
" />
<path d="M56074 25484
L56318 25484
L56187 25634
L56243 25634
L56281 25653
L56299 25671
L56318 25709
L56318 25803
L56299 25840
L56281 25859
L56243 25878
L56131 25878
L56093 25859
L56074 25840
" />
<path d="M56034 43799
L56353 43799
L56390 43781
L56409 43762
L56428 43724
L56428 43649
L56409 43612
L56390 43593
L56353 43574
L56034 43574
" />
<path d="M56165 43218
L56428 43218
" />
<path d="M56015 43312
L56296 43406
L56296 43162
" />
<path d="M64534 43799
L64853 43799
L64890 43781
L64909 43762
L64928 43724
L64928 43649
L64909 43612
L64890 43593
L64853 43574
L64534 43574
" />
<path d="M64534 43200
L64534 43387
L64721 43406
L64703 43387
L64684 43350
L64684 43256
L64703 43218
L64721 43200
L64759 43181
L64853 43181
L64890 43200
L64909 43218
L64928 43256
L64928 43350
L64909 43387
L64890 43406
" />
</g>
<g style="fill:#008484; fill-opacity:0.0; 
stroke:#008484; stroke-width:59.0551; stroke-opacity:1; 
stroke-linecap:round; stroke-linejoin:round;">
<path d="M53165 30803
L53165 31196
" />
<path d="M53834 31196
L53834 30803
" />
<path d="M53165 35803
L53165 36196
" />
<path d="M53834 36196
L53834 35803
" />
<path d="M61665 30803
L61665 31196
" />
<path d="M62334 31196
L62334 30803
" />
<path d="M61665 35803
L61665 36196
" />
<path d="M62334 36196
L62334 35803
" />
<path d="M53834 33196
L53834 32803
" />
<path d="M53165 32803
L53165 33196
" />
<path d="M62334 33196
L62334 32803
" />
<path d="M61665 32803
L61665 33196
" />
<path d="M56196 29165
L55803 29165
" />
<path d="M55803 29834
L56196 29834
" />
<path d="M64696 29165
L64303 29165
" />
<path d="M64303 29834
L64696 29834
" />
<path d="M53834 29196
L53834 28803
" />
<path d="M53165 28803
L53165 29196
" />
<path d="M59196 27665
L58803 27665
" />
<path d="M58803 28334
L59196 28334
" />
<path d="M56196 40165
L55803 40165
" />
<path d="M55803 40834
L56196 40834
" />
<path d="M64696 40165
L64303 40165
" />
<path d="M64303 40834
L64696 40834
" />
<path d="M53834 44196
L53834 43803
" />
<path d="M53165 43803
L53165 44196
" />
<path d="M62334 44196
L62334 43803
" />
<path d="M61665 43803
L61665 44196
" />
<path d="M53165 41803
L53165 42196
" />
<path d="M53834 42196
L53834 41803
" />
<path d="M53165 46303
L53165 46696
" />
<path d="M53834 46696
L53834 46303
" />
<path d="M61665 41803
L61665 42196
" />
<path d="M62334 42196
L62334 41803
" />
<path d="M61665 46303
L61665 46696
" />
<path d="M62334 46696
L62334 46303
" />
<path d="M55795 36629
L55795 35566
" />
<path d="M55204 36629
L55204 35566
" />
<path d="M55559 36039
L55460 36039
" />
<path d="M55460 36039
L55519 36098
" />
<path d="M55362 36137
L55637 36137
" />
<path d="M55500 36000
L55500 35862
" />
<path d="M55500 36137
L55362 36000
" />
<path d="M55362 36000
L55637 36000
" />
<path d="M55637 36000
L55500 36137
" />
<path d="M64295 36629
L64295 35566
" />
<path d="M63704 36629
L63704 35566
" />
<path d="M64059 36039
L63960 36039
" />
<path d="M63960 36039
L64019 36098
" />
<path d="M63862 36137
L64137 36137
" />
<path d="M64000 36000
L64000 35862
" />
<path d="M64000 36137
L63862 36000
" />
<path d="M63862 36000
L64137 36000
" />
<path d="M64137 36000
L64000 36137
" />
<path d="M57795 36629
L57795 35566
" />
<path d="M57204 36629
L57204 35566
" />
<path d="M57559 36039
L57460 36039
" />
<path d="M57460 36039
L57519 36098
" />
<path d="M57362 36137
L57637 36137
" />
<path d="M57500 36000
L57500 35862
" />
<path d="M57500 36137
L57362 36000
" />
<path d="M57362 36000
L57637 36000
" />
<path d="M57637 36000
L57500 36137
" />
<path d="M66295 36629
L66295 35566
" />
<path d="M65704 36629
L65704 35566
" />
<path d="M66059 36039
L65960 36039
" />
<path d="M65960 36039
L66019 36098
" />
<path d="M65862 36137
L66137 36137
" />
<path d="M66000 36000
L66000 35862
" />
<path d="M66000 36137
L65862 36000
" />
<path d="M65862 36000
L66137 36000
" />
<path d="M66137 36000
L66000 36137
" />
<path d="M53204 26370
L53204 27433
" />
<path d="M53795 26370
L53795 27433
" />
<path d="M53440 26960
L53539 26960
" />
<path d="M53539 26960
L53480 26901
" />
<path d="M53637 26862
L53362 26862
" />
<path d="M53500 27000
L53500 27137
" />
<path d="M53500 26862
L53637 27000
" />
<path d="M53637 27000
L53362 27000
" />
<path d="M53362 27000
L53500 26862
" />
<path d="M57795 47129
L57795 46066
" />
<path d="M57204 47129
L57204 46066
" />
<path d="M57559 46539
L57460 46539
" />
<path d="M57460 46539
L57519 46598
" />
<path d="M57362 46637
L57637 46637
" />
<path d="M57500 46500
L57500 46362
" />
<path d="M57500 46637
L57362 46500
" />
<path d="M57362 46500
L57637 46500
" />
<path d="M57637 46500
L57500 46637
" />
<path d="M66295 47129
L66295 46066
" />
<path d="M65704 47129
L65704 46066
" />
<path d="M66059 46539
L65960 46539
" />
<path d="M65960 46539
L66019 46598
" />
<path d="M65862 46637
L66137 46637
" />
<path d="M66000 46500
L66000 46362
" />
<path d="M66000 46637
L65862 46500
" />
<path d="M65862 46500
L66137 46500
" />
<path d="M66137 46500
L66000 46637
" />
<path d="M55795 47129
L55795 46066
" />
<path d="M55204 47129
L55204 46066
" />
<path d="M55559 46539
L55460 46539
" />
<path d="M55460 46539
L55519 46598
" />
<path d="M55362 46637
L55637 46637
" />
<path d="M55500 46500
L55500 46362
" />
<path d="M55500 46637
L55362 46500
" />
<path d="M55362 46500
L55637 46500
" />
<path d="M55637 46500
L55500 46637
" />
<path d="M64295 47129
L64295 46066
" />
<path d="M63704 47129
L63704 46066
" />
<path d="M64059 46539
L63960 46539
" />
<path d="M63960 46539
L64019 46598
" />
<path d="M63862 46637
L64137 46637
" />
<path d="M64000 46500
L64000 46362
" />
<path d="M64000 46637
L63862 46500
" />
<path d="M63862 46500
L64137 46500
" />
<path d="M64137 46500
L64000 46637
" />
<path d="M49250 25600
L46650 25600
" />
<path d="M46650 25600
L46650 37400
" />
<path d="M46650 37400
L49250 37400
" />
<path d="M49250 37400
L49250 25600
" />
<path d="M74250 25600
L71650 25600
" />
<path d="M71650 25600
L71650 37400
" />
<path d="M71650 37400
L74250 37400
" />
<path d="M74250 37400
L74250 25600
" />
<path d="M49250 37600
L46650 37600
" />
<path d="M46650 37600
L46650 49400
" />
<path d="M46650 49400
L49250 49400
" />
<path d="M49250 49400
L49250 37600
" />
<path d="M74250 37600
L71650 37600
" />
<path d="M71650 37600
L71650 49400
" />
<path d="M71650 49400
L74250 49400
" />
<path d="M74250 49400
L74250 37600
" />
<path d="M59500 33000
L59500 31000
" />
<path d="M59500 31000
L58500 31000
" />
<path d="M58500 31000
L58500 33000
" />
<path d="M58389 34110
L58389 33500
" />
<path d="M58500 33000
L59500 33000
" />
<path d="M59610 33500
L59610 34110
" />
<path d="M59610 34110
L58389 34110
" />
<path d="M68000 33000
L68000 31000
" />
<path d="M68000 31000
L67000 31000
" />
<path d="M67000 31000
L67000 33000
" />
<path d="M66889 34110
L66889 33500
" />
<path d="M67000 33000
L68000 33000
" />
<path d="M68110 33500
L68110 34110
" />
<path d="M68110 34110
L66889 34110
" />
<path d="M59500 44000
L59500 42000
" />
<path d="M59500 42000
L58500 42000
" />
<path d="M58500 42000
L58500 44000
" />
<path d="M58389 45110
L58389 44500
" />
<path d="M58500 44000
L59500 44000
" />
<path d="M59610 44500
L59610 45110
" />
<path d="M59610 45110
L58389 45110
" />
<path d="M68000 44000
L68000 42000
" />
<path d="M68000 42000
L67000 42000
" />
<path d="M67000 42000
L67000 44000
" />
<path d="M66889 45110
L66889 44500
" />
<path d="M67000 44000
L68000 44000
" />
<path d="M68110 44500
L68110 45110
" />
<path d="M68110 45110
L66889 45110
" />
<path d="M71000 49000
L71000 26000
" />
<path d="M69000 49000
L69000 27000
" />
<path d="M71000 49000
L69000 49000
" />
<path d="M71000 26000
L70000 26000
" />
<path d="M69500 25889
L68889 25889
" />
<path d="M70000 26000
L70000 27000
" />
<path d="M70000 27000
L69000 27000
" />
<path d="M68889 25889
L68889 26500
" />
<path d="M52000 49000
L52000 26000
" />
<path d="M50000 49000
L50000 27000
" />
<path d="M52000 49000
L50000 49000
" />
<path d="M52000 26000
L51000 26000
" />
<path d="M50500 25889
L49889 25889
" />
<path d="M51000 26000
L51000 27000
" />
<path d="M51000 27000
L50000 27000
" />
<path d="M49889 25889
L49889 26500
" />
<path d="M55155 38236
L55155 37763
" />
<path d="M55844 37763
L55844 38236
" />
<path d="M63655 38236
L63655 37763
" />
<path d="M64344 37763
L64344 38236
" />
<path d="M57155 38236
L57155 37763
" />
<path d="M57844 37763
L57844 38236
" />
<path d="M65655 38236
L65655 37763
" />
<path d="M66344 37763
L66344 38236
" />
<path d="M53844 24763
L53844 25236
" />
<path d="M53155 25236
L53155 24763
" />
<path d="M57155 48736
L57155 48263
" />
<path d="M57844 48263
L57844 48736
" />
<path d="M65655 48736
L65655 48263
" />
<path d="M66344 48263
L66344 48736
" />
<path d="M55155 48736
L55155 48263
" />
<path d="M55844 48263
L55844 48736
" />
<path d="M63655 48736
L63655 48263
" />
<path d="M64344 48263
L64344 48736
" />
<path d="M56700 34000
L56700 31000
" />
<path d="M55300 31000
L55300 34000
" />
<path d="M56700 34000
L55300 34000
" />
<path d="M55300 31000
L56700 31000
" />
<circle cx="55500" cy="31200" r="141.421" /> 
<path d="M56250 31000
L56250 31300
" />
<path d="M56250 31300
L55750 31300
" />
<path d="M55750 31300
L55750 31000
" />
<path d="M65200 34000
L65200 31000
" />
<path d="M63800 31000
L63800 34000
" />
<path d="M65200 34000
L63800 34000
" />
<path d="M63800 31000
L65200 31000
" />
<circle cx="64000" cy="31200" r="141.421" /> 
<path d="M64750 31000
L64750 31300
" />
<path d="M64750 31300
L64250 31300
" />
<path d="M64250 31300
L64250 31000
" />
<path d="M54600 26600
L54600 27800
" />
<path d="M54600 27800
L57400 27800
" />
<path d="M57400 27800
L57400 26600
" />
<path d="M54600 25400
L54600 25100
" />
<path d="M54600 25100
L55200 24200
" />
<path d="M55200 24200
L56800 24200
" />
<path d="M56800 24200
L57400 25100
" />
<path d="M57400 25100
L57400 25400
" />
<path d="M56700 45000
L56700 42000
" />
<path d="M55300 42000
L55300 45000
" />
<path d="M56700 45000
L55300 45000
" />
<path d="M55300 42000
L56700 42000
" />
<circle cx="55500" cy="42200" r="141.421" /> 
<path d="M56250 42000
L56250 42300
" />
<path d="M56250 42300
L55750 42300
" />
<path d="M55750 42300
L55750 42000
" />
<path d="M65200 45000
L65200 42000
" />
<path d="M63800 42000
L63800 45000
" />
<path d="M65200 45000
L63800 45000
" />
<path d="M63800 42000
L65200 42000
" />
<circle cx="64000" cy="42200" r="141.421" /> 
<path d="M64750 42000
L64750 42300
" />
<path d="M64750 42300
L64250 42300
" />
<path d="M64250 42300
L64250 42000
" />
</g>
<g style="fill:#840000; fill-opacity:0.0; 
stroke:#840000; stroke-width:59.0551; stroke-opacity:1; 
stroke-linecap:round; stroke-linejoin:round;">
</g>
<g style="fill:#840000; fill-opacity:1.0; 
stroke:#840000; stroke-width:0; stroke-opacity:1; 
stroke-linecap:round; stroke-linejoin:round;">
<circle cx="48000" cy="26600" r="750" /> 
</g>
<g style="fill:#840000; fill-opacity:1.0; 
stroke:#840000; stroke-width:39.3701; stroke-opacity:1; 
stroke-linecap:round; stroke-linejoin:round;">
</g>
<g style="fill:#840000; fill-opacity:1.0; 
stroke:#840000; stroke-width:0; stroke-opacity:1; 
stroke-linecap:round; stroke-linejoin:round;">
<circle cx="48000" cy="36450" r="750" /> 
</g>
<g style="fill:#840000; fill-opacity:1.0; 
stroke:#840000; stroke-width:39.3701; stroke-opacity:1; 
stroke-linecap:round; stroke-linejoin:round;">
</g>
<g style="fill:#840000; fill-opacity:1.0; 
stroke:#840000; stroke-width:0; stroke-opacity:1; 
stroke-linecap:round; stroke-linejoin:round;">
<polyline style="fill-rule:evenodd;"
points="48250,29050
48850,29050
48850,29650
48250,29650
48250,29050
" /> 
<circle cx="48550" cy="30450" r="300" /> 
</g>
<g style="fill:#840000; fill-opacity:1.0; 
stroke:#840000; stroke-width:39.3701; stroke-opacity:1; 
stroke-linecap:round; stroke-linejoin:round;">
</g>
<g style="fill:#840000; fill-opacity:1.0; 
stroke:#840000; stroke-width:0; stroke-opacity:1; 
stroke-linecap:round; stroke-linejoin:round;">
<circle cx="48550" cy="31500" r="300" /> 
</g>
<g style="fill:#840000; fill-opacity:1.0; 
stroke:#840000; stroke-width:39.3701; stroke-opacity:1; 
stroke-linecap:round; stroke-linejoin:round;">
</g>
<g style="fill:#840000; fill-opacity:1.0; 
stroke:#840000; stroke-width:0; stroke-opacity:1; 
stroke-linecap:round; stroke-linejoin:round;">
<circle cx="48550" cy="32600" r="300" /> 
</g>
<g style="fill:#840000; fill-opacity:1.0; 
stroke:#840000; stroke-width:39.3701; stroke-opacity:1; 
stroke-linecap:round; stroke-linejoin:round;">
</g>
<g style="fill:#840000; fill-opacity:1.0; 
stroke:#840000; stroke-width:0; stroke-opacity:1; 
stroke-linecap:round; stroke-linejoin:round;">
<circle cx="48550" cy="33650" r="300" /> 
</g>
<g style="fill:#840000; fill-opacity:1.0; 
stroke:#840000; stroke-width:39.3701; stroke-opacity:1; 
stroke-linecap:round; stroke-linejoin:round;">
</g>
<g style="fill:#840000; fill-opacity:1.0; 
stroke:#840000; stroke-width:0; stroke-opacity:1; 
stroke-linecap:round; stroke-linejoin:round;">
<circle cx="47450" cy="29900" r="300" /> 
</g>
<g style="fill:#840000; fill-opacity:1.0; 
stroke:#840000; stroke-width:39.3701; stroke-opacity:1; 
stroke-linecap:round; stroke-linejoin:round;">
</g>
<g style="fill:#840000; fill-opacity:1.0; 
stroke:#840000; stroke-width:0; stroke-opacity:1; 
stroke-linecap:round; stroke-linejoin:round;">
<circle cx="47450" cy="31000" r="300" /> 
</g>
<g style="fill:#840000; fill-opacity:1.0; 
stroke:#840000; stroke-width:39.3701; stroke-opacity:1; 
stroke-linecap:round; stroke-linejoin:round;">
</g>
<g style="fill:#840000; fill-opacity:1.0; 
stroke:#840000; stroke-width:0; stroke-opacity:1; 
stroke-linecap:round; stroke-linejoin:round;">
<circle cx="47450" cy="32050" r="300" /> 
</g>
<g style="fill:#840000; fill-opacity:1.0; 
stroke:#840000; stroke-width:39.3701; stroke-opacity:1; 
stroke-linecap:round; stroke-linejoin:round;">
</g>
<g style="fill:#840000; fill-opacity:1.0; 
stroke:#840000; stroke-width:0; stroke-opacity:1; 
stroke-linecap:round; stroke-linejoin:round;">
<circle cx="47450" cy="33150" r="300" /> 
</g>
<g style="fill:#840000; fill-opacity:1.0; 
stroke:#840000; stroke-width:39.3701; stroke-opacity:1; 
stroke-linecap:round; stroke-linejoin:round;">
</g>
<g style="fill:#840000; fill-opacity:1.0; 
stroke:#840000; stroke-width:0; stroke-opacity:1; 
stroke-linecap:round; stroke-linejoin:round;">
<circle cx="73000" cy="26600" r="750" /> 
</g>
<g style="fill:#840000; fill-opacity:1.0; 
stroke:#840000; stroke-width:39.3701; stroke-opacity:1; 
stroke-linecap:round; stroke-linejoin:round;">
</g>
<g style="fill:#840000; fill-opacity:1.0; 
stroke:#840000; stroke-width:0; stroke-opacity:1; 
stroke-linecap:round; stroke-linejoin:round;">
<circle cx="73000" cy="36450" r="750" /> 
</g>
<g style="fill:#840000; fill-opacity:1.0; 
stroke:#840000; stroke-width:39.3701; stroke-opacity:1; 
stroke-linecap:round; stroke-linejoin:round;">
</g>
<g style="fill:#840000; fill-opacity:1.0; 
stroke:#840000; stroke-width:0; stroke-opacity:1; 
stroke-linecap:round; stroke-linejoin:round;">
<polyline style="fill-rule:evenodd;"
points="73250,29050
73850,29050
73850,29650
73250,29650
73250,29050
" /> 
<circle cx="73550" cy="30450" r="300" /> 
</g>
<g style="fill:#840000; fill-opacity:1.0; 
stroke:#840000; stroke-width:39.3701; stroke-opacity:1; 
stroke-linecap:round; stroke-linejoin:round;">
</g>
<g style="fill:#840000; fill-opacity:1.0; 
stroke:#840000; stroke-width:0; stroke-opacity:1; 
stroke-linecap:round; stroke-linejoin:round;">
<circle cx="73550" cy="31500" r="300" /> 
</g>
<g style="fill:#840000; fill-opacity:1.0; 
stroke:#840000; stroke-width:39.3701; stroke-opacity:1; 
stroke-linecap:round; stroke-linejoin:round;">
</g>
<g style="fill:#840000; fill-opacity:1.0; 
stroke:#840000; stroke-width:0; stroke-opacity:1; 
stroke-linecap:round; stroke-linejoin:round;">
<circle cx="73550" cy="32600" r="300" /> 
</g>
<g style="fill:#840000; fill-opacity:1.0; 
stroke:#840000; stroke-width:39.3701; stroke-opacity:1; 
stroke-linecap:round; stroke-linejoin:round;">
</g>
<g style="fill:#840000; fill-opacity:1.0; 
stroke:#840000; stroke-width:0; stroke-opacity:1; 
stroke-linecap:round; stroke-linejoin:round;">
<circle cx="73550" cy="33650" r="300" /> 
</g>
<g style="fill:#840000; fill-opacity:1.0; 
stroke:#840000; stroke-width:39.3701; stroke-opacity:1; 
stroke-linecap:round; stroke-linejoin:round;">
</g>
<g style="fill:#840000; fill-opacity:1.0; 
stroke:#840000; stroke-width:0; stroke-opacity:1; 
stroke-linecap:round; stroke-linejoin:round;">
<circle cx="72450" cy="29900" r="300" /> 
</g>
<g style="fill:#840000; fill-opacity:1.0; 
stroke:#840000; stroke-width:39.3701; stroke-opacity:1; 
stroke-linecap:round; stroke-linejoin:round;">
</g>
<g style="fill:#840000; fill-opacity:1.0; 
stroke:#840000; stroke-width:0; stroke-opacity:1; 
stroke-linecap:round; stroke-linejoin:round;">
<circle cx="72450" cy="31000" r="300" /> 
</g>
<g style="fill:#840000; fill-opacity:1.0; 
stroke:#840000; stroke-width:39.3701; stroke-opacity:1; 
stroke-linecap:round; stroke-linejoin:round;">
</g>
<g style="fill:#840000; fill-opacity:1.0; 
stroke:#840000; stroke-width:0; stroke-opacity:1; 
stroke-linecap:round; stroke-linejoin:round;">
<circle cx="72450" cy="32050" r="300" /> 
</g>
<g style="fill:#840000; fill-opacity:1.0; 
stroke:#840000; stroke-width:39.3701; stroke-opacity:1; 
stroke-linecap:round; stroke-linejoin:round;">
</g>
<g style="fill:#840000; fill-opacity:1.0; 
stroke:#840000; stroke-width:0; stroke-opacity:1; 
stroke-linecap:round; stroke-linejoin:round;">
<circle cx="72450" cy="33150" r="300" /> 
</g>
<g style="fill:#840000; fill-opacity:1.0; 
stroke:#840000; stroke-width:39.3701; stroke-opacity:1; 
stroke-linecap:round; stroke-linejoin:round;">
</g>
<g style="fill:#840000; fill-opacity:1.0; 
stroke:#840000; stroke-width:0; stroke-opacity:1; 
stroke-linecap:round; stroke-linejoin:round;">
<circle cx="48000" cy="38600" r="750" /> 
</g>
<g style="fill:#840000; fill-opacity:1.0; 
stroke:#840000; stroke-width:39.3701; stroke-opacity:1; 
stroke-linecap:round; stroke-linejoin:round;">
</g>
<g style="fill:#840000; fill-opacity:1.0; 
stroke:#840000; stroke-width:0; stroke-opacity:1; 
stroke-linecap:round; stroke-linejoin:round;">
<circle cx="48000" cy="48450" r="750" /> 
</g>
<g style="fill:#840000; fill-opacity:1.0; 
stroke:#840000; stroke-width:39.3701; stroke-opacity:1; 
stroke-linecap:round; stroke-linejoin:round;">
</g>
<g style="fill:#840000; fill-opacity:1.0; 
stroke:#840000; stroke-width:0; stroke-opacity:1; 
stroke-linecap:round; stroke-linejoin:round;">
<polyline style="fill-rule:evenodd;"
points="48250,41050
48850,41050
48850,41650
48250,41650
48250,41050
" /> 
<circle cx="48550" cy="42450" r="300" /> 
</g>
<g style="fill:#840000; fill-opacity:1.0; 
stroke:#840000; stroke-width:39.3701; stroke-opacity:1; 
stroke-linecap:round; stroke-linejoin:round;">
</g>
<g style="fill:#840000; fill-opacity:1.0; 
stroke:#840000; stroke-width:0; stroke-opacity:1; 
stroke-linecap:round; stroke-linejoin:round;">
<circle cx="48550" cy="43500" r="300" /> 
</g>
<g style="fill:#840000; fill-opacity:1.0; 
stroke:#840000; stroke-width:39.3701; stroke-opacity:1; 
stroke-linecap:round; stroke-linejoin:round;">
</g>
<g style="fill:#840000; fill-opacity:1.0; 
stroke:#840000; stroke-width:0; stroke-opacity:1; 
stroke-linecap:round; stroke-linejoin:round;">
<circle cx="48550" cy="44600" r="300" /> 
</g>
<g style="fill:#840000; fill-opacity:1.0; 
stroke:#840000; stroke-width:39.3701; stroke-opacity:1; 
stroke-linecap:round; stroke-linejoin:round;">
</g>
<g style="fill:#840000; fill-opacity:1.0; 
stroke:#840000; stroke-width:0; stroke-opacity:1; 
stroke-linecap:round; stroke-linejoin:round;">
<circle cx="48550" cy="45650" r="300" /> 
</g>
<g style="fill:#840000; fill-opacity:1.0; 
stroke:#840000; stroke-width:39.3701; stroke-opacity:1; 
stroke-linecap:round; stroke-linejoin:round;">
</g>
<g style="fill:#840000; fill-opacity:1.0; 
stroke:#840000; stroke-width:0; stroke-opacity:1; 
stroke-linecap:round; stroke-linejoin:round;">
<circle cx="47450" cy="41900" r="300" /> 
</g>
<g style="fill:#840000; fill-opacity:1.0; 
stroke:#840000; stroke-width:39.3701; stroke-opacity:1; 
stroke-linecap:round; stroke-linejoin:round;">
</g>
<g style="fill:#840000; fill-opacity:1.0; 
stroke:#840000; stroke-width:0; stroke-opacity:1; 
stroke-linecap:round; stroke-linejoin:round;">
<circle cx="47450" cy="43000" r="300" /> 
</g>
<g style="fill:#840000; fill-opacity:1.0; 
stroke:#840000; stroke-width:39.3701; stroke-opacity:1; 
stroke-linecap:round; stroke-linejoin:round;">
</g>
<g style="fill:#840000; fill-opacity:1.0; 
stroke:#840000; stroke-width:0; stroke-opacity:1; 
stroke-linecap:round; stroke-linejoin:round;">
<circle cx="47450" cy="44050" r="300" /> 
</g>
<g style="fill:#840000; fill-opacity:1.0; 
stroke:#840000; stroke-width:39.3701; stroke-opacity:1; 
stroke-linecap:round; stroke-linejoin:round;">
</g>
<g style="fill:#840000; fill-opacity:1.0; 
stroke:#840000; stroke-width:0; stroke-opacity:1; 
stroke-linecap:round; stroke-linejoin:round;">
<circle cx="47450" cy="45150" r="300" /> 
</g>
<g style="fill:#840000; fill-opacity:1.0; 
stroke:#840000; stroke-width:39.3701; stroke-opacity:1; 
stroke-linecap:round; stroke-linejoin:round;">
</g>
<g style="fill:#840000; fill-opacity:1.0; 
stroke:#840000; stroke-width:0; stroke-opacity:1; 
stroke-linecap:round; stroke-linejoin:round;">
<circle cx="73000" cy="38600" r="750" /> 
</g>
<g style="fill:#840000; fill-opacity:1.0; 
stroke:#840000; stroke-width:39.3701; stroke-opacity:1; 
stroke-linecap:round; stroke-linejoin:round;">
</g>
<g style="fill:#840000; fill-opacity:1.0; 
stroke:#840000; stroke-width:0; stroke-opacity:1; 
stroke-linecap:round; stroke-linejoin:round;">
<circle cx="73000" cy="48450" r="750" /> 
</g>
<g style="fill:#840000; fill-opacity:1.0; 
stroke:#840000; stroke-width:39.3701; stroke-opacity:1; 
stroke-linecap:round; stroke-linejoin:round;">
</g>
<g style="fill:#840000; fill-opacity:1.0; 
stroke:#840000; stroke-width:0; stroke-opacity:1; 
stroke-linecap:round; stroke-linejoin:round;">
<polyline style="fill-rule:evenodd;"
points="73250,41050
73850,41050
73850,41650
73250,41650
73250,41050
" /> 
<circle cx="73550" cy="42450" r="300" /> 
</g>
<g style="fill:#840000; fill-opacity:1.0; 
stroke:#840000; stroke-width:39.3701; stroke-opacity:1; 
stroke-linecap:round; stroke-linejoin:round;">
</g>
<g style="fill:#840000; fill-opacity:1.0; 
stroke:#840000; stroke-width:0; stroke-opacity:1; 
stroke-linecap:round; stroke-linejoin:round;">
<circle cx="73550" cy="43500" r="300" /> 
</g>
<g style="fill:#840000; fill-opacity:1.0; 
stroke:#840000; stroke-width:39.3701; stroke-opacity:1; 
stroke-linecap:round; stroke-linejoin:round;">
</g>
<g style="fill:#840000; fill-opacity:1.0; 
stroke:#840000; stroke-width:0; stroke-opacity:1; 
stroke-linecap:round; stroke-linejoin:round;">
<circle cx="73550" cy="44600" r="300" /> 
</g>
<g style="fill:#840000; fill-opacity:1.0; 
stroke:#840000; stroke-width:39.3701; stroke-opacity:1; 
stroke-linecap:round; stroke-linejoin:round;">
</g>
<g style="fill:#840000; fill-opacity:1.0; 
stroke:#840000; stroke-width:0; stroke-opacity:1; 
stroke-linecap:round; stroke-linejoin:round;">
<circle cx="73550" cy="45650" r="300" /> 
</g>
<g style="fill:#840000; fill-opacity:1.0; 
stroke:#840000; stroke-width:39.3701; stroke-opacity:1; 
stroke-linecap:round; stroke-linejoin:round;">
</g>
<g style="fill:#840000; fill-opacity:1.0; 
stroke:#840000; stroke-width:0; stroke-opacity:1; 
stroke-linecap:round; stroke-linejoin:round;">
<circle cx="72450" cy="41900" r="300" /> 
</g>
<g style="fill:#840000; fill-opacity:1.0; 
stroke:#840000; stroke-width:39.3701; stroke-opacity:1; 
stroke-linecap:round; stroke-linejoin:round;">
</g>
<g style="fill:#840000; fill-opacity:1.0; 
stroke:#840000; stroke-width:0; stroke-opacity:1; 
stroke-linecap:round; stroke-linejoin:round;">
<circle cx="72450" cy="43000" r="300" /> 
</g>
<g style="fill:#840000; fill-opacity:1.0; 
stroke:#840000; stroke-width:39.3701; stroke-opacity:1; 
stroke-linecap:round; stroke-linejoin:round;">
</g>
<g style="fill:#840000; fill-opacity:1.0; 
stroke:#840000; stroke-width:0; stroke-opacity:1; 
stroke-linecap:round; stroke-linejoin:round;">
<circle cx="72450" cy="44050" r="300" /> 
</g>
<g style="fill:#840000; fill-opacity:1.0; 
stroke:#840000; stroke-width:39.3701; stroke-opacity:1; 
stroke-linecap:round; stroke-linejoin:round;">
</g>
<g style="fill:#840000; fill-opacity:1.0; 
stroke:#840000; stroke-width:0; stroke-opacity:1; 
stroke-linecap:round; stroke-linejoin:round;">
<circle cx="72450" cy="45150" r="300" /> 
</g>
<g style="fill:#840000; fill-opacity:1.0; 
stroke:#840000; stroke-width:39.3701; stroke-opacity:1; 
stroke-linecap:round; stroke-linejoin:round;">
</g>
<g style="fill:#840000; fill-opacity:1.0; 
stroke:#840000; stroke-width:0; stroke-opacity:1; 
stroke-linecap:round; stroke-linejoin:round;">
<polyline style="fill-rule:evenodd;"
points="59400,33160
59400,33840
58600,33840
58600,33160
59400,33160
" /> 
</g>
<g style="fill:#840000; fill-opacity:1.0; 
stroke:#840000; stroke-width:680; stroke-opacity:1; 
stroke-linecap:round; stroke-linejoin:round;">
</g>
<g style="fill:#840000; fill-opacity:0.0; 
stroke:#840000; stroke-width:680; stroke-opacity:1; 
stroke-linecap:round; stroke-linejoin:round;">
<path d="M59060 32500
L58940 32500
" />
<path d="M59060 31500
L58940 31500
" />
</g>
<g style="fill:#840000; fill-opacity:0.0; 
stroke:#840000; stroke-width:0; stroke-opacity:1; 
stroke-linecap:round; stroke-linejoin:round;">
</g>
<g style="fill:#840000; fill-opacity:1.0; 
stroke:#840000; stroke-width:0; stroke-opacity:1; 
stroke-linecap:round; stroke-linejoin:round;">
<polyline style="fill-rule:evenodd;"
points="67900,33160
67900,33840
67100,33840
67100,33160
67900,33160
" /> 
</g>
<g style="fill:#840000; fill-opacity:1.0; 
stroke:#840000; stroke-width:680; stroke-opacity:1; 
stroke-linecap:round; stroke-linejoin:round;">
</g>
<g style="fill:#840000; fill-opacity:0.0; 
stroke:#840000; stroke-width:680; stroke-opacity:1; 
stroke-linecap:round; stroke-linejoin:round;">
<path d="M67560 32500
L67440 32500
" />
<path d="M67560 31500
L67440 31500
" />
</g>
<g style="fill:#840000; fill-opacity:0.0; 
stroke:#840000; stroke-width:0; stroke-opacity:1; 
stroke-linecap:round; stroke-linejoin:round;">
</g>
<g style="fill:#840000; fill-opacity:1.0; 
stroke:#840000; stroke-width:0; stroke-opacity:1; 
stroke-linecap:round; stroke-linejoin:round;">
<polyline style="fill-rule:evenodd;"
points="59400,44160
59400,44840
58600,44840
58600,44160
59400,44160
" /> 
</g>
<g style="fill:#840000; fill-opacity:1.0; 
stroke:#840000; stroke-width:680; stroke-opacity:1; 
stroke-linecap:round; stroke-linejoin:round;">
</g>
<g style="fill:#840000; fill-opacity:0.0; 
stroke:#840000; stroke-width:680; stroke-opacity:1; 
stroke-linecap:round; stroke-linejoin:round;">
<path d="M59060 43500
L58940 43500
" />
<path d="M59060 42500
L58940 42500
" />
</g>
<g style="fill:#840000; fill-opacity:0.0; 
stroke:#840000; stroke-width:0; stroke-opacity:1; 
stroke-linecap:round; stroke-linejoin:round;">
</g>
<g style="fill:#840000; fill-opacity:1.0; 
stroke:#840000; stroke-width:0; stroke-opacity:1; 
stroke-linecap:round; stroke-linejoin:round;">
<polyline style="fill-rule:evenodd;"
points="67900,44160
67900,44840
67100,44840
67100,44160
67900,44160
" /> 
</g>
<g style="fill:#840000; fill-opacity:1.0; 
stroke:#840000; stroke-width:680; stroke-opacity:1; 
stroke-linecap:round; stroke-linejoin:round;">
</g>
<g style="fill:#840000; fill-opacity:0.0; 
stroke:#840000; stroke-width:680; stroke-opacity:1; 
stroke-linecap:round; stroke-linejoin:round;">
<path d="M67560 43500
L67440 43500
" />
<path d="M67560 42500
L67440 42500
" />
</g>
<g style="fill:#840000; fill-opacity:0.0; 
stroke:#840000; stroke-width:0; stroke-opacity:1; 
stroke-linecap:round; stroke-linejoin:round;">
</g>
<g style="fill:#840000; fill-opacity:1.0; 
stroke:#840000; stroke-width:0; stroke-opacity:1; 
stroke-linecap:round; stroke-linejoin:round;">
<polyline style="fill-rule:evenodd;"
points="69160,26840
69160,26160
69840,26160
69840,26840
69160,26840
" /> 
</g>
<g style="fill:#840000; fill-opacity:1.0; 
stroke:#840000; stroke-width:680; stroke-opacity:1; 
stroke-linecap:round; stroke-linejoin:round;">
</g>
<g style="fill:#840000; fill-opacity:0.0; 
stroke:#840000; stroke-width:680; stroke-opacity:1; 
stroke-linecap:round; stroke-linejoin:round;">
<path d="M70500 26500
L70500 26500
" />
<path d="M69500 27500
L69500 27500
" />
<path d="M70500 27500
L70500 27500
" />
<path d="M69500 28500
L69500 28500
" />
<path d="M70500 28500
L70500 28500
" />
<path d="M69500 29500
L69500 29500
" />
<path d="M70500 29500
L70500 29500
" />
<path d="M69500 30500
L69500 30500
" />
<path d="M70500 30500
L70500 30500
" />
<path d="M69500 31500
L69500 31500
" />
<path d="M70500 31500
L70500 31500
" />
<path d="M69500 32500
L69500 32500
" />
<path d="M70500 32500
L70500 32500
" />
<path d="M69500 33500
L69500 33500
" />
<path d="M70500 33500
L70500 33500
" />
<path d="M69500 34500
L69500 34500
" />
<path d="M70500 34500
L70500 34500
" />
<path d="M69500 35500
L69500 35500
" />
<path d="M70500 35500
L70500 35500
" />
<path d="M69500 36500
L69500 36500
" />
<path d="M70500 36500
L70500 36500
" />
<path d="M69500 37500
L69500 37500
" />
<path d="M70500 37500
L70500 37500
" />
<path d="M69500 38500
L69500 38500
" />
<path d="M70500 38500
L70500 38500
" />
<path d="M69500 39500
L69500 39500
" />
<path d="M70500 39500
L70500 39500
" />
<path d="M69500 40500
L69500 40500
" />
<path d="M70500 40500
L70500 40500
" />
<path d="M69500 41500
L69500 41500
" />
<path d="M70500 41500
L70500 41500
" />
<path d="M69500 42500
L69500 42500
" />
<path d="M70500 42500
L70500 42500
" />
<path d="M69500 43500
L69500 43500
" />
<path d="M70500 43500
L70500 43500
" />
<path d="M69500 44500
L69500 44500
" />
<path d="M70500 44500
L70500 44500
" />
<path d="M69500 45500
L69500 45500
" />
<path d="M70500 45500
L70500 45500
" />
<path d="M69500 46500
L69500 46500
" />
<path d="M70500 46500
L70500 46500
" />
<path d="M69500 47500
L69500 47500
" />
<path d="M70500 47500
L70500 47500
" />
<path d="M69500 48500
L69500 48500
" />
<path d="M70500 48500
L70500 48500
" />
</g>
<g style="fill:#840000; fill-opacity:0.0; 
stroke:#840000; stroke-width:0; stroke-opacity:1; 
stroke-linecap:round; stroke-linejoin:round;">
</g>
<g style="fill:#840000; fill-opacity:1.0; 
stroke:#840000; stroke-width:0; stroke-opacity:1; 
stroke-linecap:round; stroke-linejoin:round;">
<polyline style="fill-rule:evenodd;"
points="50160,26840
50160,26160
50840,26160
50840,26840
50160,26840
" /> 
</g>
<g style="fill:#840000; fill-opacity:1.0; 
stroke:#840000; stroke-width:680; stroke-opacity:1; 
stroke-linecap:round; stroke-linejoin:round;">
</g>
<g style="fill:#840000; fill-opacity:0.0; 
stroke:#840000; stroke-width:680; stroke-opacity:1; 
stroke-linecap:round; stroke-linejoin:round;">
<path d="M51500 26500
L51500 26500
" />
<path d="M50500 27500
L50500 27500
" />
<path d="M51500 27500
L51500 27500
" />
<path d="M50500 28500
L50500 28500
" />
<path d="M51500 28500
L51500 28500
" />
<path d="M50500 29500
L50500 29500
" />
<path d="M51500 29500
L51500 29500
" />
<path d="M50500 30500
L50500 30500
" />
<path d="M51500 30500
L51500 30500
" />
<path d="M50500 31500
L50500 31500
" />
<path d="M51500 31500
L51500 31500
" />
<path d="M50500 32500
L50500 32500
" />
<path d="M51500 32500
L51500 32500
" />
<path d="M50500 33500
L50500 33500
" />
<path d="M51500 33500
L51500 33500
" />
<path d="M50500 34500
L50500 34500
" />
<path d="M51500 34500
L51500 34500
" />
<path d="M50500 35500
L50500 35500
" />
<path d="M51500 35500
L51500 35500
" />
<path d="M50500 36500
L50500 36500
" />
<path d="M51500 36500
L51500 36500
" />
<path d="M50500 37500
L50500 37500
" />
<path d="M51500 37500
L51500 37500
" />
<path d="M50500 38500
L50500 38500
" />
<path d="M51500 38500
L51500 38500
" />
<path d="M50500 39500
L50500 39500
" />
<path d="M51500 39500
L51500 39500
" />
<path d="M50500 40500
L50500 40500
" />
<path d="M51500 40500
L51500 40500
" />
<path d="M50500 41500
L50500 41500
" />
<path d="M51500 41500
L51500 41500
" />
<path d="M50500 42500
L50500 42500
" />
<path d="M51500 42500
L51500 42500
" />
<path d="M50500 43500
L50500 43500
" />
<path d="M51500 43500
L51500 43500
" />
<path d="M50500 44500
L50500 44500
" />
<path d="M51500 44500
L51500 44500
" />
<path d="M50500 45500
L50500 45500
" />
<path d="M51500 45500
L51500 45500
" />
<path d="M50500 46500
L50500 46500
" />
<path d="M51500 46500
L51500 46500
" />
<path d="M50500 47500
L50500 47500
" />
<path d="M51500 47500
L51500 47500
" />
<path d="M50500 48500
L50500 48500
" />
<path d="M51500 48500
L51500 48500
" />
</g> 
</svg>
